M48
; DRILL file {KiCad (5.1.2)-2} date 21/01/2020 17:10:46
; FORMAT={2:4/ absolute / inch / suppress trailing zeros}
; #@! TF.CreationDate,2020-01-21T17:10:46+01:00
; #@! TF.GenerationSoftware,Kicad,Pcbnew,(5.1.2)-2
FMAT,2
INCH,LZ
T1C0.0300
T2C0.0394
%
G90
G05
T1
X043744Y-020105
X043744Y-020895
X043744Y-021685
X043744Y-022475
X043744Y-023265
X043744Y-024055
X043744Y-024845
X043744Y-025635
X043744Y-026425
X043744Y-027215
X052404Y-020105
X052404Y-020895
X052404Y-021685
X052404Y-022475
X052404Y-023265
X052404Y-024055
X052404Y-024845
X052404Y-025635
X052404Y-026425
X052404Y-027215
T2
X046534Y-020136
X046534Y-021136
X046534Y-022136
X046534Y-023136
X046534Y-024136
X046534Y-025136
X046534Y-026136
X046534Y-027136
X046534Y-028136
X046534Y-029136
X049536Y-020126
X049536Y-021126
X049536Y-022126
X049536Y-023126
X049536Y-024126
X049536Y-025126
X049536Y-026126
X049536Y-027126
X049536Y-028126
X049536Y-029126
X04753Y-03059
X04853Y-03059
T0
M30
