G04 #@! TF.GenerationSoftware,KiCad,Pcbnew,(5.1.2)-2*
G04 #@! TF.CreationDate,2020-01-21T17:10:43+01:00*
G04 #@! TF.ProjectId,xbee-adapter,78626565-2d61-4646-9170-7465722e6b69,rev?*
G04 #@! TF.SameCoordinates,Original*
G04 #@! TF.FileFunction,Copper,L2,Bot*
G04 #@! TF.FilePolarity,Positive*
%FSLAX46Y46*%
G04 Gerber Fmt 4.6, Leading zero omitted, Abs format (unit mm)*
G04 Created by KiCad (PCBNEW (5.1.2)-2) date 2020-01-21 17:10:43*
%MOMM*%
%LPD*%
G04 APERTURE LIST*
%ADD10R,1.700000X1.700000*%
%ADD11O,1.700000X1.700000*%
%ADD12C,1.524000*%
G04 APERTURE END LIST*
D10*
X120726200Y-77698600D03*
D11*
X123266200Y-77698600D03*
D12*
X111109760Y-51066700D03*
X111109760Y-53073300D03*
X111109760Y-55079900D03*
X111109760Y-57086500D03*
X111109760Y-59093100D03*
X111109760Y-61099700D03*
X111109760Y-63106300D03*
X111109760Y-65112900D03*
X111109760Y-67119500D03*
X111109760Y-69126100D03*
X133106160Y-69126100D03*
X133106160Y-67119500D03*
X133106160Y-65112900D03*
X133106160Y-63106300D03*
X133106160Y-61099700D03*
X133106160Y-59093100D03*
X133106160Y-57086500D03*
X133106160Y-55079900D03*
X133106160Y-53073300D03*
X133106160Y-51066700D03*
D10*
X118196360Y-51145440D03*
D11*
X118196360Y-53685440D03*
X118196360Y-56225440D03*
X118196360Y-58765440D03*
X118196360Y-61305440D03*
X118196360Y-63845440D03*
X118196360Y-66385440D03*
X118196360Y-68925440D03*
X118196360Y-71465440D03*
X118196360Y-74005440D03*
X125821440Y-51120200D03*
X125821440Y-53660200D03*
X125821440Y-56200200D03*
X125821440Y-58740200D03*
X125821440Y-61280200D03*
X125821440Y-63820200D03*
X125821440Y-66360200D03*
X125821440Y-68900200D03*
X125821440Y-71440200D03*
D10*
X125821440Y-73980200D03*
M02*
