G04 #@! TF.GenerationSoftware,KiCad,Pcbnew,(5.1.2)-2*
G04 #@! TF.CreationDate,2020-01-21T17:10:43+01:00*
G04 #@! TF.ProjectId,xbee-adapter,78626565-2d61-4646-9170-7465722e6b69,rev?*
G04 #@! TF.SameCoordinates,Original*
G04 #@! TF.FileFunction,Legend,Bot*
G04 #@! TF.FilePolarity,Positive*
%FSLAX46Y46*%
G04 Gerber Fmt 4.6, Leading zero omitted, Abs format (unit mm)*
G04 Created by KiCad (PCBNEW (5.1.2)-2) date 2020-01-21 17:10:43*
%MOMM*%
%LPD*%
G04 APERTURE LIST*
%ADD10C,0.150000*%
%ADD11C,0.010000*%
%ADD12C,0.100000*%
%ADD13C,0.120000*%
G04 APERTURE END LIST*
D10*
X130691639Y-71979462D02*
X129691639Y-71312796D01*
X130691639Y-71312796D02*
X129691639Y-71979462D01*
X130215448Y-70598510D02*
X130167829Y-70455653D01*
X130120210Y-70408034D01*
X130024972Y-70360415D01*
X129882115Y-70360415D01*
X129786877Y-70408034D01*
X129739258Y-70455653D01*
X129691639Y-70550891D01*
X129691639Y-70931843D01*
X130691639Y-70931843D01*
X130691639Y-70598510D01*
X130644020Y-70503272D01*
X130596400Y-70455653D01*
X130501162Y-70408034D01*
X130405924Y-70408034D01*
X130310686Y-70455653D01*
X130263067Y-70503272D01*
X130215448Y-70598510D01*
X130215448Y-70931843D01*
X129739258Y-69550891D02*
X129691639Y-69646129D01*
X129691639Y-69836605D01*
X129739258Y-69931843D01*
X129834496Y-69979462D01*
X130215448Y-69979462D01*
X130310686Y-69931843D01*
X130358305Y-69836605D01*
X130358305Y-69646129D01*
X130310686Y-69550891D01*
X130215448Y-69503272D01*
X130120210Y-69503272D01*
X130024972Y-69979462D01*
X129739258Y-68693748D02*
X129691639Y-68788986D01*
X129691639Y-68979462D01*
X129739258Y-69074700D01*
X129834496Y-69122320D01*
X130215448Y-69122320D01*
X130310686Y-69074700D01*
X130358305Y-68979462D01*
X130358305Y-68788986D01*
X130310686Y-68693748D01*
X130215448Y-68646129D01*
X130120210Y-68646129D01*
X130024972Y-69122320D01*
X129977353Y-67503272D02*
X129977353Y-67027081D01*
X129691639Y-67598510D02*
X130691639Y-67265177D01*
X129691639Y-66931843D01*
X129691639Y-66169939D02*
X130691639Y-66169939D01*
X129739258Y-66169939D02*
X129691639Y-66265177D01*
X129691639Y-66455653D01*
X129739258Y-66550891D01*
X129786877Y-66598510D01*
X129882115Y-66646129D01*
X130167829Y-66646129D01*
X130263067Y-66598510D01*
X130310686Y-66550891D01*
X130358305Y-66455653D01*
X130358305Y-66265177D01*
X130310686Y-66169939D01*
X129691639Y-65265177D02*
X130215448Y-65265177D01*
X130310686Y-65312796D01*
X130358305Y-65408034D01*
X130358305Y-65598510D01*
X130310686Y-65693748D01*
X129739258Y-65265177D02*
X129691639Y-65360415D01*
X129691639Y-65598510D01*
X129739258Y-65693748D01*
X129834496Y-65741367D01*
X129929734Y-65741367D01*
X130024972Y-65693748D01*
X130072591Y-65598510D01*
X130072591Y-65360415D01*
X130120210Y-65265177D01*
X130358305Y-64788986D02*
X129358305Y-64788986D01*
X130310686Y-64788986D02*
X130358305Y-64693748D01*
X130358305Y-64503272D01*
X130310686Y-64408034D01*
X130263067Y-64360415D01*
X130167829Y-64312796D01*
X129882115Y-64312796D01*
X129786877Y-64360415D01*
X129739258Y-64408034D01*
X129691639Y-64503272D01*
X129691639Y-64693748D01*
X129739258Y-64788986D01*
X130358305Y-64027081D02*
X130358305Y-63646129D01*
X130691639Y-63884224D02*
X129834496Y-63884224D01*
X129739258Y-63836605D01*
X129691639Y-63741367D01*
X129691639Y-63646129D01*
X129739258Y-62931843D02*
X129691639Y-63027081D01*
X129691639Y-63217558D01*
X129739258Y-63312796D01*
X129834496Y-63360415D01*
X130215448Y-63360415D01*
X130310686Y-63312796D01*
X130358305Y-63217558D01*
X130358305Y-63027081D01*
X130310686Y-62931843D01*
X130215448Y-62884224D01*
X130120210Y-62884224D01*
X130024972Y-63360415D01*
X129691639Y-62455653D02*
X130358305Y-62455653D01*
X130167829Y-62455653D02*
X130263067Y-62408034D01*
X130310686Y-62360415D01*
X130358305Y-62265177D01*
X130358305Y-62169939D01*
X130596400Y-61122320D02*
X130644020Y-61074700D01*
X130691639Y-60979462D01*
X130691639Y-60741367D01*
X130644020Y-60646129D01*
X130596400Y-60598510D01*
X130501162Y-60550891D01*
X130405924Y-60550891D01*
X130263067Y-60598510D01*
X129691639Y-61169939D01*
X129691639Y-60550891D01*
X129786877Y-60122320D02*
X129739258Y-60074700D01*
X129691639Y-60122320D01*
X129739258Y-60169939D01*
X129786877Y-60122320D01*
X129691639Y-60122320D01*
X130691639Y-59169939D02*
X130691639Y-59646129D01*
X130215448Y-59693748D01*
X130263067Y-59646129D01*
X130310686Y-59550891D01*
X130310686Y-59312796D01*
X130263067Y-59217558D01*
X130215448Y-59169939D01*
X130120210Y-59122320D01*
X129882115Y-59122320D01*
X129786877Y-59169939D01*
X129739258Y-59217558D01*
X129691639Y-59312796D01*
X129691639Y-59550891D01*
X129739258Y-59646129D01*
X129786877Y-59693748D01*
X130358305Y-58265177D02*
X129691639Y-58265177D01*
X130739258Y-58503272D02*
X130024972Y-58741367D01*
X130024972Y-58122320D01*
X129691639Y-57741367D02*
X130358305Y-57741367D01*
X130263067Y-57741367D02*
X130310686Y-57693748D01*
X130358305Y-57598510D01*
X130358305Y-57455653D01*
X130310686Y-57360415D01*
X130215448Y-57312796D01*
X129691639Y-57312796D01*
X130215448Y-57312796D02*
X130310686Y-57265177D01*
X130358305Y-57169939D01*
X130358305Y-57027081D01*
X130310686Y-56931843D01*
X130215448Y-56884224D01*
X129691639Y-56884224D01*
X129691639Y-56408034D02*
X130358305Y-56408034D01*
X130263067Y-56408034D02*
X130310686Y-56360415D01*
X130358305Y-56265177D01*
X130358305Y-56122320D01*
X130310686Y-56027081D01*
X130215448Y-55979462D01*
X129691639Y-55979462D01*
X130215448Y-55979462D02*
X130310686Y-55931843D01*
X130358305Y-55836605D01*
X130358305Y-55693748D01*
X130310686Y-55598510D01*
X130215448Y-55550891D01*
X129691639Y-55550891D01*
X128041639Y-71312796D02*
X128517829Y-71646129D01*
X128041639Y-71884224D02*
X129041639Y-71884224D01*
X129041639Y-71503272D01*
X128994020Y-71408034D01*
X128946400Y-71360415D01*
X128851162Y-71312796D01*
X128708305Y-71312796D01*
X128613067Y-71360415D01*
X128565448Y-71408034D01*
X128517829Y-71503272D01*
X128517829Y-71884224D01*
X128089258Y-70503272D02*
X128041639Y-70598510D01*
X128041639Y-70788986D01*
X128089258Y-70884224D01*
X128184496Y-70931843D01*
X128565448Y-70931843D01*
X128660686Y-70884224D01*
X128708305Y-70788986D01*
X128708305Y-70598510D01*
X128660686Y-70503272D01*
X128565448Y-70455653D01*
X128470210Y-70455653D01*
X128374972Y-70931843D01*
X128708305Y-70122320D02*
X128041639Y-69884224D01*
X128708305Y-69646129D01*
X128041639Y-67979462D02*
X128041639Y-68550891D01*
X128041639Y-68265177D02*
X129041639Y-68265177D01*
X128898781Y-68360415D01*
X128803543Y-68455653D01*
X128755924Y-68550891D01*
D11*
G36*
X111703274Y-78689171D02*
G01*
X111702873Y-78649689D01*
X111700081Y-78534000D01*
X111691790Y-78437111D01*
X111677108Y-78355719D01*
X111655147Y-78286523D01*
X111625018Y-78226220D01*
X111585830Y-78171508D01*
X111568808Y-78151967D01*
X111528977Y-78119550D01*
X111474927Y-78090320D01*
X111415017Y-78067791D01*
X111357601Y-78055479D01*
X111336384Y-78054200D01*
X111277571Y-78062217D01*
X111213327Y-78083699D01*
X111152519Y-78114799D01*
X111104010Y-78151666D01*
X111098158Y-78157654D01*
X111057019Y-78208379D01*
X111024905Y-78263925D01*
X111000975Y-78327496D01*
X110984387Y-78402294D01*
X110974299Y-78491522D01*
X110969871Y-78598382D01*
X110969495Y-78647328D01*
X110969795Y-78709562D01*
X110971048Y-78753328D01*
X110973786Y-78782731D01*
X110978539Y-78801879D01*
X110985839Y-78814877D01*
X110992073Y-78821845D01*
X110999646Y-78828426D01*
X111009416Y-78833588D01*
X111024000Y-78837503D01*
X111046014Y-78840343D01*
X111078076Y-78842280D01*
X111122804Y-78843484D01*
X111182814Y-78844128D01*
X111260723Y-78844383D01*
X111336384Y-78844422D01*
X111437299Y-78844670D01*
X111517913Y-78844617D01*
X111556518Y-78843657D01*
X111556518Y-78697667D01*
X111116251Y-78697667D01*
X111116336Y-78604534D01*
X111117944Y-78548493D01*
X111122084Y-78489799D01*
X111127876Y-78440828D01*
X111128114Y-78439338D01*
X111147250Y-78360192D01*
X111177053Y-78298802D01*
X111219462Y-78252105D01*
X111265379Y-78222435D01*
X111316314Y-78204153D01*
X111364140Y-78205571D01*
X111415407Y-78226788D01*
X111468441Y-78268289D01*
X111507740Y-78325798D01*
X111534009Y-78400550D01*
X111543305Y-78450508D01*
X111549833Y-78507216D01*
X111554558Y-78567319D01*
X111556523Y-78618439D01*
X111556532Y-78621467D01*
X111556518Y-78697667D01*
X111556518Y-78843657D01*
X111580489Y-78843060D01*
X111627285Y-78838798D01*
X111660562Y-78830630D01*
X111682581Y-78817356D01*
X111695601Y-78797774D01*
X111701883Y-78770683D01*
X111703687Y-78734882D01*
X111703274Y-78689171D01*
X111703274Y-78689171D01*
G37*
X111703274Y-78689171D02*
X111702873Y-78649689D01*
X111700081Y-78534000D01*
X111691790Y-78437111D01*
X111677108Y-78355719D01*
X111655147Y-78286523D01*
X111625018Y-78226220D01*
X111585830Y-78171508D01*
X111568808Y-78151967D01*
X111528977Y-78119550D01*
X111474927Y-78090320D01*
X111415017Y-78067791D01*
X111357601Y-78055479D01*
X111336384Y-78054200D01*
X111277571Y-78062217D01*
X111213327Y-78083699D01*
X111152519Y-78114799D01*
X111104010Y-78151666D01*
X111098158Y-78157654D01*
X111057019Y-78208379D01*
X111024905Y-78263925D01*
X111000975Y-78327496D01*
X110984387Y-78402294D01*
X110974299Y-78491522D01*
X110969871Y-78598382D01*
X110969495Y-78647328D01*
X110969795Y-78709562D01*
X110971048Y-78753328D01*
X110973786Y-78782731D01*
X110978539Y-78801879D01*
X110985839Y-78814877D01*
X110992073Y-78821845D01*
X110999646Y-78828426D01*
X111009416Y-78833588D01*
X111024000Y-78837503D01*
X111046014Y-78840343D01*
X111078076Y-78842280D01*
X111122804Y-78843484D01*
X111182814Y-78844128D01*
X111260723Y-78844383D01*
X111336384Y-78844422D01*
X111437299Y-78844670D01*
X111517913Y-78844617D01*
X111556518Y-78843657D01*
X111556518Y-78697667D01*
X111116251Y-78697667D01*
X111116336Y-78604534D01*
X111117944Y-78548493D01*
X111122084Y-78489799D01*
X111127876Y-78440828D01*
X111128114Y-78439338D01*
X111147250Y-78360192D01*
X111177053Y-78298802D01*
X111219462Y-78252105D01*
X111265379Y-78222435D01*
X111316314Y-78204153D01*
X111364140Y-78205571D01*
X111415407Y-78226788D01*
X111468441Y-78268289D01*
X111507740Y-78325798D01*
X111534009Y-78400550D01*
X111543305Y-78450508D01*
X111549833Y-78507216D01*
X111554558Y-78567319D01*
X111556523Y-78618439D01*
X111556532Y-78621467D01*
X111556518Y-78697667D01*
X111556518Y-78843657D01*
X111580489Y-78843060D01*
X111627285Y-78838798D01*
X111660562Y-78830630D01*
X111682581Y-78817356D01*
X111695601Y-78797774D01*
X111701883Y-78770683D01*
X111703687Y-78734882D01*
X111703274Y-78689171D01*
G36*
X111703194Y-77280594D02*
G01*
X111702822Y-77211186D01*
X111701955Y-77158797D01*
X111700394Y-77120647D01*
X111697937Y-77093959D01*
X111694383Y-77075953D01*
X111689530Y-77063849D01*
X111683179Y-77054869D01*
X111680256Y-77051618D01*
X111649198Y-77031843D01*
X111613512Y-77028282D01*
X111581830Y-77041291D01*
X111575427Y-77047306D01*
X111569219Y-77057035D01*
X111564430Y-77072701D01*
X111560826Y-77097208D01*
X111558176Y-77133461D01*
X111556245Y-77184365D01*
X111554801Y-77252826D01*
X111553922Y-77315417D01*
X111550873Y-77563134D01*
X111485962Y-77566519D01*
X111421051Y-77569905D01*
X111421051Y-77401758D01*
X111420421Y-77328759D01*
X111417787Y-77275317D01*
X111412031Y-77238428D01*
X111402036Y-77215088D01*
X111386684Y-77202294D01*
X111364858Y-77197042D01*
X111344602Y-77196245D01*
X111319748Y-77198723D01*
X111301434Y-77208077D01*
X111288703Y-77227183D01*
X111280599Y-77258918D01*
X111276164Y-77306159D01*
X111274441Y-77371783D01*
X111274295Y-77407601D01*
X111274295Y-77568778D01*
X111116251Y-77568778D01*
X111116251Y-77320422D01*
X111116138Y-77239013D01*
X111115628Y-77177142D01*
X111114470Y-77131768D01*
X111112410Y-77099854D01*
X111109194Y-77078359D01*
X111104568Y-77064243D01*
X111098281Y-77054468D01*
X111093673Y-77049489D01*
X111066780Y-77032410D01*
X111042873Y-77026911D01*
X111013673Y-77034763D01*
X110992073Y-77049489D01*
X110985274Y-77057346D01*
X110979994Y-77067488D01*
X110976042Y-77082644D01*
X110973227Y-77105541D01*
X110971358Y-77138909D01*
X110970242Y-77185475D01*
X110969689Y-77247967D01*
X110969507Y-77329114D01*
X110969495Y-77371222D01*
X110969575Y-77461398D01*
X110969942Y-77531724D01*
X110970788Y-77584929D01*
X110972304Y-77623740D01*
X110974681Y-77650887D01*
X110978111Y-77669098D01*
X110982786Y-77681100D01*
X110988896Y-77689622D01*
X110992073Y-77692956D01*
X110999670Y-77699555D01*
X111009470Y-77704727D01*
X111024101Y-77708646D01*
X111046188Y-77711484D01*
X111078358Y-77713415D01*
X111123237Y-77714612D01*
X111183451Y-77715248D01*
X111261627Y-77715497D01*
X111334417Y-77715534D01*
X111427633Y-77715500D01*
X111500909Y-77715265D01*
X111556882Y-77714630D01*
X111598189Y-77713394D01*
X111627468Y-77711356D01*
X111647356Y-77708317D01*
X111660490Y-77704077D01*
X111669508Y-77698435D01*
X111677047Y-77691191D01*
X111678728Y-77689406D01*
X111686168Y-77680745D01*
X111691931Y-77670682D01*
X111696228Y-77656425D01*
X111699276Y-77635183D01*
X111701289Y-77604164D01*
X111702480Y-77560577D01*
X111703065Y-77501631D01*
X111703257Y-77424534D01*
X111703273Y-77369801D01*
X111703194Y-77280594D01*
X111703194Y-77280594D01*
G37*
X111703194Y-77280594D02*
X111702822Y-77211186D01*
X111701955Y-77158797D01*
X111700394Y-77120647D01*
X111697937Y-77093959D01*
X111694383Y-77075953D01*
X111689530Y-77063849D01*
X111683179Y-77054869D01*
X111680256Y-77051618D01*
X111649198Y-77031843D01*
X111613512Y-77028282D01*
X111581830Y-77041291D01*
X111575427Y-77047306D01*
X111569219Y-77057035D01*
X111564430Y-77072701D01*
X111560826Y-77097208D01*
X111558176Y-77133461D01*
X111556245Y-77184365D01*
X111554801Y-77252826D01*
X111553922Y-77315417D01*
X111550873Y-77563134D01*
X111485962Y-77566519D01*
X111421051Y-77569905D01*
X111421051Y-77401758D01*
X111420421Y-77328759D01*
X111417787Y-77275317D01*
X111412031Y-77238428D01*
X111402036Y-77215088D01*
X111386684Y-77202294D01*
X111364858Y-77197042D01*
X111344602Y-77196245D01*
X111319748Y-77198723D01*
X111301434Y-77208077D01*
X111288703Y-77227183D01*
X111280599Y-77258918D01*
X111276164Y-77306159D01*
X111274441Y-77371783D01*
X111274295Y-77407601D01*
X111274295Y-77568778D01*
X111116251Y-77568778D01*
X111116251Y-77320422D01*
X111116138Y-77239013D01*
X111115628Y-77177142D01*
X111114470Y-77131768D01*
X111112410Y-77099854D01*
X111109194Y-77078359D01*
X111104568Y-77064243D01*
X111098281Y-77054468D01*
X111093673Y-77049489D01*
X111066780Y-77032410D01*
X111042873Y-77026911D01*
X111013673Y-77034763D01*
X110992073Y-77049489D01*
X110985274Y-77057346D01*
X110979994Y-77067488D01*
X110976042Y-77082644D01*
X110973227Y-77105541D01*
X110971358Y-77138909D01*
X110970242Y-77185475D01*
X110969689Y-77247967D01*
X110969507Y-77329114D01*
X110969495Y-77371222D01*
X110969575Y-77461398D01*
X110969942Y-77531724D01*
X110970788Y-77584929D01*
X110972304Y-77623740D01*
X110974681Y-77650887D01*
X110978111Y-77669098D01*
X110982786Y-77681100D01*
X110988896Y-77689622D01*
X110992073Y-77692956D01*
X110999670Y-77699555D01*
X111009470Y-77704727D01*
X111024101Y-77708646D01*
X111046188Y-77711484D01*
X111078358Y-77713415D01*
X111123237Y-77714612D01*
X111183451Y-77715248D01*
X111261627Y-77715497D01*
X111334417Y-77715534D01*
X111427633Y-77715500D01*
X111500909Y-77715265D01*
X111556882Y-77714630D01*
X111598189Y-77713394D01*
X111627468Y-77711356D01*
X111647356Y-77708317D01*
X111660490Y-77704077D01*
X111669508Y-77698435D01*
X111677047Y-77691191D01*
X111678728Y-77689406D01*
X111686168Y-77680745D01*
X111691931Y-77670682D01*
X111696228Y-77656425D01*
X111699276Y-77635183D01*
X111701289Y-77604164D01*
X111702480Y-77560577D01*
X111703065Y-77501631D01*
X111703257Y-77424534D01*
X111703273Y-77369801D01*
X111703194Y-77280594D01*
G36*
X111701989Y-76259503D02*
G01*
X111696759Y-76184688D01*
X111688590Y-76115106D01*
X111677790Y-76054802D01*
X111664667Y-76007820D01*
X111649527Y-75978206D01*
X111645071Y-75973660D01*
X111610490Y-75957854D01*
X111574989Y-75962647D01*
X111544615Y-75987164D01*
X111543744Y-75988334D01*
X111534386Y-76002754D01*
X111529464Y-76017808D01*
X111528867Y-76038805D01*
X111532479Y-76071057D01*
X111540186Y-76119873D01*
X111540835Y-76123800D01*
X111549771Y-76196539D01*
X111554179Y-76275017D01*
X111554221Y-76353727D01*
X111550061Y-76427161D01*
X111541861Y-76489811D01*
X111529783Y-76536170D01*
X111528569Y-76539216D01*
X111509725Y-76572848D01*
X111490655Y-76584664D01*
X111471901Y-76575414D01*
X111454003Y-76545847D01*
X111437503Y-76496711D01*
X111422944Y-76428757D01*
X111415934Y-76383445D01*
X111402451Y-76289256D01*
X111390126Y-76214344D01*
X111377891Y-76155517D01*
X111364679Y-76109585D01*
X111349423Y-76073355D01*
X111331055Y-76043638D01*
X111308509Y-76017242D01*
X111286369Y-75996030D01*
X111255521Y-75970865D01*
X111228995Y-75958481D01*
X111196314Y-75954608D01*
X111184345Y-75954467D01*
X111144628Y-75957376D01*
X111115081Y-75969002D01*
X111088854Y-75989123D01*
X111048764Y-76030016D01*
X111018191Y-76075617D01*
X110996137Y-76129313D01*
X110981605Y-76194492D01*
X110973599Y-76274544D01*
X110971122Y-76372857D01*
X110971163Y-76389089D01*
X110972522Y-76454649D01*
X110975610Y-76519666D01*
X110979984Y-76577052D01*
X110985200Y-76619722D01*
X110985799Y-76623172D01*
X110995849Y-76665596D01*
X111008544Y-76701580D01*
X111020150Y-76721950D01*
X111050768Y-76740907D01*
X111086422Y-76742227D01*
X111118196Y-76725885D01*
X111121789Y-76722229D01*
X111132464Y-76707115D01*
X111137064Y-76688215D01*
X111136281Y-76658962D01*
X111132213Y-76623451D01*
X111128578Y-76583770D01*
X111125512Y-76528145D01*
X111123287Y-76463206D01*
X111122176Y-76395585D01*
X111122103Y-76377800D01*
X111122376Y-76309928D01*
X111123694Y-76260254D01*
X111126513Y-76224410D01*
X111131290Y-76198024D01*
X111138483Y-76176726D01*
X111144473Y-76163926D01*
X111161107Y-76135800D01*
X111176172Y-76117868D01*
X111180443Y-76115247D01*
X111198077Y-76120776D01*
X111215148Y-76147060D01*
X111230882Y-76192278D01*
X111244502Y-76254608D01*
X111247536Y-76272971D01*
X111262602Y-76368890D01*
X111275194Y-76445441D01*
X111286229Y-76505580D01*
X111296620Y-76552260D01*
X111307284Y-76588437D01*
X111319135Y-76617065D01*
X111333089Y-76641098D01*
X111350059Y-76663492D01*
X111370962Y-76687202D01*
X111378291Y-76695180D01*
X111405641Y-76723153D01*
X111427311Y-76737960D01*
X111452108Y-76743752D01*
X111483357Y-76744689D01*
X111544635Y-76734375D01*
X111596700Y-76703552D01*
X111639382Y-76652395D01*
X111672515Y-76581083D01*
X111687376Y-76530200D01*
X111696974Y-76474900D01*
X111702404Y-76408653D01*
X111703973Y-76335506D01*
X111701989Y-76259503D01*
X111701989Y-76259503D01*
G37*
X111701989Y-76259503D02*
X111696759Y-76184688D01*
X111688590Y-76115106D01*
X111677790Y-76054802D01*
X111664667Y-76007820D01*
X111649527Y-75978206D01*
X111645071Y-75973660D01*
X111610490Y-75957854D01*
X111574989Y-75962647D01*
X111544615Y-75987164D01*
X111543744Y-75988334D01*
X111534386Y-76002754D01*
X111529464Y-76017808D01*
X111528867Y-76038805D01*
X111532479Y-76071057D01*
X111540186Y-76119873D01*
X111540835Y-76123800D01*
X111549771Y-76196539D01*
X111554179Y-76275017D01*
X111554221Y-76353727D01*
X111550061Y-76427161D01*
X111541861Y-76489811D01*
X111529783Y-76536170D01*
X111528569Y-76539216D01*
X111509725Y-76572848D01*
X111490655Y-76584664D01*
X111471901Y-76575414D01*
X111454003Y-76545847D01*
X111437503Y-76496711D01*
X111422944Y-76428757D01*
X111415934Y-76383445D01*
X111402451Y-76289256D01*
X111390126Y-76214344D01*
X111377891Y-76155517D01*
X111364679Y-76109585D01*
X111349423Y-76073355D01*
X111331055Y-76043638D01*
X111308509Y-76017242D01*
X111286369Y-75996030D01*
X111255521Y-75970865D01*
X111228995Y-75958481D01*
X111196314Y-75954608D01*
X111184345Y-75954467D01*
X111144628Y-75957376D01*
X111115081Y-75969002D01*
X111088854Y-75989123D01*
X111048764Y-76030016D01*
X111018191Y-76075617D01*
X110996137Y-76129313D01*
X110981605Y-76194492D01*
X110973599Y-76274544D01*
X110971122Y-76372857D01*
X110971163Y-76389089D01*
X110972522Y-76454649D01*
X110975610Y-76519666D01*
X110979984Y-76577052D01*
X110985200Y-76619722D01*
X110985799Y-76623172D01*
X110995849Y-76665596D01*
X111008544Y-76701580D01*
X111020150Y-76721950D01*
X111050768Y-76740907D01*
X111086422Y-76742227D01*
X111118196Y-76725885D01*
X111121789Y-76722229D01*
X111132464Y-76707115D01*
X111137064Y-76688215D01*
X111136281Y-76658962D01*
X111132213Y-76623451D01*
X111128578Y-76583770D01*
X111125512Y-76528145D01*
X111123287Y-76463206D01*
X111122176Y-76395585D01*
X111122103Y-76377800D01*
X111122376Y-76309928D01*
X111123694Y-76260254D01*
X111126513Y-76224410D01*
X111131290Y-76198024D01*
X111138483Y-76176726D01*
X111144473Y-76163926D01*
X111161107Y-76135800D01*
X111176172Y-76117868D01*
X111180443Y-76115247D01*
X111198077Y-76120776D01*
X111215148Y-76147060D01*
X111230882Y-76192278D01*
X111244502Y-76254608D01*
X111247536Y-76272971D01*
X111262602Y-76368890D01*
X111275194Y-76445441D01*
X111286229Y-76505580D01*
X111296620Y-76552260D01*
X111307284Y-76588437D01*
X111319135Y-76617065D01*
X111333089Y-76641098D01*
X111350059Y-76663492D01*
X111370962Y-76687202D01*
X111378291Y-76695180D01*
X111405641Y-76723153D01*
X111427311Y-76737960D01*
X111452108Y-76743752D01*
X111483357Y-76744689D01*
X111544635Y-76734375D01*
X111596700Y-76703552D01*
X111639382Y-76652395D01*
X111672515Y-76581083D01*
X111687376Y-76530200D01*
X111696974Y-76474900D01*
X111702404Y-76408653D01*
X111703973Y-76335506D01*
X111701989Y-76259503D01*
G36*
X111680695Y-75491622D02*
G01*
X111673122Y-75485042D01*
X111663353Y-75479879D01*
X111648769Y-75475964D01*
X111626755Y-75473124D01*
X111594692Y-75471187D01*
X111549965Y-75469983D01*
X111489955Y-75469339D01*
X111412046Y-75469084D01*
X111336384Y-75469045D01*
X111242538Y-75469114D01*
X111168651Y-75469438D01*
X111112108Y-75470186D01*
X111070291Y-75471532D01*
X111040583Y-75473646D01*
X111020367Y-75476700D01*
X111007026Y-75480866D01*
X110997942Y-75486316D01*
X110992073Y-75491622D01*
X110972393Y-75524626D01*
X110974159Y-75559791D01*
X110995623Y-75591255D01*
X111004003Y-75598484D01*
X111013726Y-75604134D01*
X111027479Y-75608399D01*
X111047951Y-75611473D01*
X111077828Y-75613552D01*
X111119799Y-75614830D01*
X111176551Y-75615501D01*
X111250773Y-75615759D01*
X111334803Y-75615800D01*
X111647855Y-75615800D01*
X111675564Y-75588091D01*
X111698877Y-75553937D01*
X111699717Y-75520806D01*
X111680695Y-75491622D01*
X111680695Y-75491622D01*
G37*
X111680695Y-75491622D02*
X111673122Y-75485042D01*
X111663353Y-75479879D01*
X111648769Y-75475964D01*
X111626755Y-75473124D01*
X111594692Y-75471187D01*
X111549965Y-75469983D01*
X111489955Y-75469339D01*
X111412046Y-75469084D01*
X111336384Y-75469045D01*
X111242538Y-75469114D01*
X111168651Y-75469438D01*
X111112108Y-75470186D01*
X111070291Y-75471532D01*
X111040583Y-75473646D01*
X111020367Y-75476700D01*
X111007026Y-75480866D01*
X110997942Y-75486316D01*
X110992073Y-75491622D01*
X110972393Y-75524626D01*
X110974159Y-75559791D01*
X110995623Y-75591255D01*
X111004003Y-75598484D01*
X111013726Y-75604134D01*
X111027479Y-75608399D01*
X111047951Y-75611473D01*
X111077828Y-75613552D01*
X111119799Y-75614830D01*
X111176551Y-75615501D01*
X111250773Y-75615759D01*
X111334803Y-75615800D01*
X111647855Y-75615800D01*
X111675564Y-75588091D01*
X111698877Y-75553937D01*
X111699717Y-75520806D01*
X111680695Y-75491622D01*
G36*
X111697741Y-74517881D02*
G01*
X111686245Y-74449365D01*
X111668373Y-74396743D01*
X111644841Y-74362508D01*
X111631416Y-74353179D01*
X111600192Y-74343693D01*
X111571945Y-74350077D01*
X111545158Y-74370230D01*
X111532627Y-74401545D01*
X111533644Y-74446983D01*
X111540434Y-74482126D01*
X111553369Y-74560219D01*
X111554598Y-74640026D01*
X111544099Y-74729355D01*
X111539650Y-74754029D01*
X111516232Y-74837091D01*
X111481395Y-74902073D01*
X111435736Y-74948261D01*
X111379846Y-74974945D01*
X111350952Y-74980463D01*
X111292328Y-74976851D01*
X111240461Y-74953529D01*
X111196362Y-74912624D01*
X111161041Y-74856259D01*
X111135511Y-74786560D01*
X111120781Y-74705652D01*
X111117862Y-74615660D01*
X111127765Y-74518710D01*
X111128699Y-74513236D01*
X111135881Y-74474675D01*
X111142819Y-74453294D01*
X111153113Y-74444027D01*
X111170364Y-74441806D01*
X111179499Y-74441756D01*
X111217851Y-74441756D01*
X111217851Y-74510231D01*
X111221993Y-74570700D01*
X111235193Y-74611965D01*
X111258610Y-74635975D01*
X111293404Y-74644677D01*
X111297946Y-74644783D01*
X111327686Y-74639692D01*
X111348921Y-74622233D01*
X111362974Y-74589739D01*
X111371167Y-74539543D01*
X111374179Y-74490923D01*
X111375907Y-74420256D01*
X111373270Y-74368998D01*
X111363540Y-74334039D01*
X111343987Y-74312270D01*
X111311884Y-74300580D01*
X111264502Y-74295860D01*
X111202269Y-74295000D01*
X111132805Y-74296409D01*
X111085554Y-74300648D01*
X111060328Y-74307736D01*
X111058352Y-74309111D01*
X111026832Y-74348028D01*
X111001870Y-74405086D01*
X110984000Y-74476669D01*
X110973754Y-74559158D01*
X110971667Y-74648939D01*
X110978272Y-74742392D01*
X110986384Y-74797356D01*
X111010786Y-74883566D01*
X111050678Y-74963692D01*
X111102453Y-75030777D01*
X111112801Y-75040973D01*
X111156305Y-75074102D01*
X111210222Y-75103994D01*
X111266748Y-75127157D01*
X111318081Y-75140098D01*
X111337796Y-75141658D01*
X111378921Y-75135018D01*
X111430088Y-75117368D01*
X111483946Y-75092097D01*
X111533145Y-75062589D01*
X111566006Y-75036519D01*
X111614888Y-74975565D01*
X111653795Y-74896769D01*
X111681846Y-74802957D01*
X111698161Y-74696950D01*
X111702148Y-74599800D01*
X111697741Y-74517881D01*
X111697741Y-74517881D01*
G37*
X111697741Y-74517881D02*
X111686245Y-74449365D01*
X111668373Y-74396743D01*
X111644841Y-74362508D01*
X111631416Y-74353179D01*
X111600192Y-74343693D01*
X111571945Y-74350077D01*
X111545158Y-74370230D01*
X111532627Y-74401545D01*
X111533644Y-74446983D01*
X111540434Y-74482126D01*
X111553369Y-74560219D01*
X111554598Y-74640026D01*
X111544099Y-74729355D01*
X111539650Y-74754029D01*
X111516232Y-74837091D01*
X111481395Y-74902073D01*
X111435736Y-74948261D01*
X111379846Y-74974945D01*
X111350952Y-74980463D01*
X111292328Y-74976851D01*
X111240461Y-74953529D01*
X111196362Y-74912624D01*
X111161041Y-74856259D01*
X111135511Y-74786560D01*
X111120781Y-74705652D01*
X111117862Y-74615660D01*
X111127765Y-74518710D01*
X111128699Y-74513236D01*
X111135881Y-74474675D01*
X111142819Y-74453294D01*
X111153113Y-74444027D01*
X111170364Y-74441806D01*
X111179499Y-74441756D01*
X111217851Y-74441756D01*
X111217851Y-74510231D01*
X111221993Y-74570700D01*
X111235193Y-74611965D01*
X111258610Y-74635975D01*
X111293404Y-74644677D01*
X111297946Y-74644783D01*
X111327686Y-74639692D01*
X111348921Y-74622233D01*
X111362974Y-74589739D01*
X111371167Y-74539543D01*
X111374179Y-74490923D01*
X111375907Y-74420256D01*
X111373270Y-74368998D01*
X111363540Y-74334039D01*
X111343987Y-74312270D01*
X111311884Y-74300580D01*
X111264502Y-74295860D01*
X111202269Y-74295000D01*
X111132805Y-74296409D01*
X111085554Y-74300648D01*
X111060328Y-74307736D01*
X111058352Y-74309111D01*
X111026832Y-74348028D01*
X111001870Y-74405086D01*
X110984000Y-74476669D01*
X110973754Y-74559158D01*
X110971667Y-74648939D01*
X110978272Y-74742392D01*
X110986384Y-74797356D01*
X111010786Y-74883566D01*
X111050678Y-74963692D01*
X111102453Y-75030777D01*
X111112801Y-75040973D01*
X111156305Y-75074102D01*
X111210222Y-75103994D01*
X111266748Y-75127157D01*
X111318081Y-75140098D01*
X111337796Y-75141658D01*
X111378921Y-75135018D01*
X111430088Y-75117368D01*
X111483946Y-75092097D01*
X111533145Y-75062589D01*
X111566006Y-75036519D01*
X111614888Y-74975565D01*
X111653795Y-74896769D01*
X111681846Y-74802957D01*
X111698161Y-74696950D01*
X111702148Y-74599800D01*
X111697741Y-74517881D01*
G36*
X111698892Y-73867914D02*
G01*
X111685067Y-73844348D01*
X111662459Y-73813535D01*
X111630002Y-73773878D01*
X111586632Y-73723780D01*
X111531282Y-73661643D01*
X111462889Y-73585872D01*
X111384256Y-73499134D01*
X111220462Y-73318511D01*
X111440311Y-73312867D01*
X111515989Y-73310829D01*
X111572346Y-73308863D01*
X111612634Y-73306534D01*
X111640105Y-73303406D01*
X111658011Y-73299045D01*
X111669603Y-73293016D01*
X111678132Y-73284884D01*
X111681717Y-73280572D01*
X111700670Y-73246041D01*
X111697899Y-73213183D01*
X111681707Y-73187118D01*
X111660141Y-73160467D01*
X111345189Y-73157152D01*
X111252561Y-73156235D01*
X111179796Y-73155768D01*
X111124179Y-73155913D01*
X111082998Y-73156832D01*
X111053537Y-73158687D01*
X111033085Y-73161639D01*
X111018927Y-73165850D01*
X111008349Y-73171482D01*
X110999866Y-73177727D01*
X110984133Y-73191239D01*
X110973704Y-73204683D01*
X110969701Y-73219924D01*
X110973246Y-73238826D01*
X110985461Y-73263255D01*
X111007469Y-73295073D01*
X111040391Y-73336148D01*
X111085349Y-73388342D01*
X111143465Y-73453522D01*
X111210241Y-73527356D01*
X111450882Y-73792645D01*
X111231751Y-73798289D01*
X111156212Y-73800331D01*
X111099986Y-73802302D01*
X111059816Y-73804639D01*
X111032444Y-73807781D01*
X111014612Y-73812164D01*
X111003061Y-73818224D01*
X110994533Y-73826400D01*
X110991058Y-73830584D01*
X110971968Y-73867565D01*
X110974847Y-73902508D01*
X110999240Y-73932936D01*
X111009054Y-73939897D01*
X111020514Y-73945323D01*
X111036372Y-73949403D01*
X111059377Y-73952329D01*
X111092278Y-73954292D01*
X111137824Y-73955483D01*
X111198767Y-73956092D01*
X111277854Y-73956311D01*
X111336384Y-73956334D01*
X111427933Y-73956260D01*
X111499653Y-73955913D01*
X111554295Y-73955101D01*
X111594608Y-73953633D01*
X111623342Y-73951319D01*
X111643247Y-73947967D01*
X111657072Y-73943388D01*
X111667568Y-73937389D01*
X111673529Y-73932936D01*
X111687649Y-73921650D01*
X111698311Y-73911101D01*
X111704448Y-73899693D01*
X111704997Y-73885830D01*
X111698892Y-73867914D01*
X111698892Y-73867914D01*
G37*
X111698892Y-73867914D02*
X111685067Y-73844348D01*
X111662459Y-73813535D01*
X111630002Y-73773878D01*
X111586632Y-73723780D01*
X111531282Y-73661643D01*
X111462889Y-73585872D01*
X111384256Y-73499134D01*
X111220462Y-73318511D01*
X111440311Y-73312867D01*
X111515989Y-73310829D01*
X111572346Y-73308863D01*
X111612634Y-73306534D01*
X111640105Y-73303406D01*
X111658011Y-73299045D01*
X111669603Y-73293016D01*
X111678132Y-73284884D01*
X111681717Y-73280572D01*
X111700670Y-73246041D01*
X111697899Y-73213183D01*
X111681707Y-73187118D01*
X111660141Y-73160467D01*
X111345189Y-73157152D01*
X111252561Y-73156235D01*
X111179796Y-73155768D01*
X111124179Y-73155913D01*
X111082998Y-73156832D01*
X111053537Y-73158687D01*
X111033085Y-73161639D01*
X111018927Y-73165850D01*
X111008349Y-73171482D01*
X110999866Y-73177727D01*
X110984133Y-73191239D01*
X110973704Y-73204683D01*
X110969701Y-73219924D01*
X110973246Y-73238826D01*
X110985461Y-73263255D01*
X111007469Y-73295073D01*
X111040391Y-73336148D01*
X111085349Y-73388342D01*
X111143465Y-73453522D01*
X111210241Y-73527356D01*
X111450882Y-73792645D01*
X111231751Y-73798289D01*
X111156212Y-73800331D01*
X111099986Y-73802302D01*
X111059816Y-73804639D01*
X111032444Y-73807781D01*
X111014612Y-73812164D01*
X111003061Y-73818224D01*
X110994533Y-73826400D01*
X110991058Y-73830584D01*
X110971968Y-73867565D01*
X110974847Y-73902508D01*
X110999240Y-73932936D01*
X111009054Y-73939897D01*
X111020514Y-73945323D01*
X111036372Y-73949403D01*
X111059377Y-73952329D01*
X111092278Y-73954292D01*
X111137824Y-73955483D01*
X111198767Y-73956092D01*
X111277854Y-73956311D01*
X111336384Y-73956334D01*
X111427933Y-73956260D01*
X111499653Y-73955913D01*
X111554295Y-73955101D01*
X111594608Y-73953633D01*
X111623342Y-73951319D01*
X111643247Y-73947967D01*
X111657072Y-73943388D01*
X111667568Y-73937389D01*
X111673529Y-73932936D01*
X111687649Y-73921650D01*
X111698311Y-73911101D01*
X111704448Y-73899693D01*
X111704997Y-73885830D01*
X111698892Y-73867914D01*
G36*
X111703080Y-72337457D02*
G01*
X111702166Y-72261099D01*
X111700029Y-72202583D01*
X111696165Y-72159545D01*
X111690073Y-72129617D01*
X111681250Y-72110432D01*
X111669194Y-72099624D01*
X111653401Y-72094827D01*
X111633370Y-72093673D01*
X111631005Y-72093667D01*
X111608348Y-72094669D01*
X111590837Y-72099404D01*
X111577766Y-72110467D01*
X111568427Y-72130452D01*
X111562113Y-72161954D01*
X111558118Y-72207568D01*
X111555734Y-72269887D01*
X111554254Y-72351507D01*
X111553926Y-72376523D01*
X111550873Y-72618600D01*
X111485962Y-72621986D01*
X111421051Y-72625371D01*
X111421051Y-72457224D01*
X111420809Y-72391534D01*
X111419784Y-72344628D01*
X111417529Y-72312717D01*
X111413598Y-72292009D01*
X111407542Y-72278716D01*
X111398916Y-72269045D01*
X111398847Y-72268983D01*
X111365228Y-72251444D01*
X111328892Y-72252078D01*
X111297917Y-72270486D01*
X111294733Y-72274129D01*
X111286528Y-72287059D01*
X111280819Y-72304776D01*
X111277178Y-72331230D01*
X111275173Y-72370368D01*
X111274376Y-72426138D01*
X111274295Y-72461806D01*
X111274295Y-72624245D01*
X111116251Y-72624245D01*
X111116251Y-72377639D01*
X111116109Y-72296220D01*
X111115526Y-72234390D01*
X111114272Y-72189163D01*
X111112113Y-72157552D01*
X111108817Y-72136569D01*
X111104151Y-72123227D01*
X111097883Y-72114539D01*
X111095607Y-72112350D01*
X111064060Y-72096186D01*
X111028172Y-72095003D01*
X110997055Y-72108264D01*
X110987069Y-72118757D01*
X110981571Y-72129671D01*
X110977318Y-72146583D01*
X110974160Y-72172167D01*
X110971948Y-72209099D01*
X110970534Y-72260054D01*
X110969768Y-72327706D01*
X110969502Y-72414731D01*
X110969495Y-72434406D01*
X110969553Y-72522889D01*
X110969873Y-72591573D01*
X110970673Y-72643236D01*
X110972173Y-72680655D01*
X110974591Y-72706610D01*
X110978146Y-72723878D01*
X110983058Y-72735238D01*
X110989545Y-72743468D01*
X110994202Y-72747983D01*
X111002451Y-72754779D01*
X111012671Y-72760088D01*
X111027540Y-72764094D01*
X111049738Y-72766979D01*
X111081947Y-72768926D01*
X111126844Y-72770119D01*
X111187112Y-72770739D01*
X111265429Y-72770971D01*
X111331346Y-72771000D01*
X111423712Y-72770929D01*
X111496223Y-72770592D01*
X111551603Y-72769802D01*
X111592575Y-72768374D01*
X111621862Y-72766121D01*
X111642187Y-72762857D01*
X111656274Y-72758396D01*
X111666845Y-72752552D01*
X111673529Y-72747603D01*
X111703273Y-72724206D01*
X111703273Y-72434026D01*
X111703080Y-72337457D01*
X111703080Y-72337457D01*
G37*
X111703080Y-72337457D02*
X111702166Y-72261099D01*
X111700029Y-72202583D01*
X111696165Y-72159545D01*
X111690073Y-72129617D01*
X111681250Y-72110432D01*
X111669194Y-72099624D01*
X111653401Y-72094827D01*
X111633370Y-72093673D01*
X111631005Y-72093667D01*
X111608348Y-72094669D01*
X111590837Y-72099404D01*
X111577766Y-72110467D01*
X111568427Y-72130452D01*
X111562113Y-72161954D01*
X111558118Y-72207568D01*
X111555734Y-72269887D01*
X111554254Y-72351507D01*
X111553926Y-72376523D01*
X111550873Y-72618600D01*
X111485962Y-72621986D01*
X111421051Y-72625371D01*
X111421051Y-72457224D01*
X111420809Y-72391534D01*
X111419784Y-72344628D01*
X111417529Y-72312717D01*
X111413598Y-72292009D01*
X111407542Y-72278716D01*
X111398916Y-72269045D01*
X111398847Y-72268983D01*
X111365228Y-72251444D01*
X111328892Y-72252078D01*
X111297917Y-72270486D01*
X111294733Y-72274129D01*
X111286528Y-72287059D01*
X111280819Y-72304776D01*
X111277178Y-72331230D01*
X111275173Y-72370368D01*
X111274376Y-72426138D01*
X111274295Y-72461806D01*
X111274295Y-72624245D01*
X111116251Y-72624245D01*
X111116251Y-72377639D01*
X111116109Y-72296220D01*
X111115526Y-72234390D01*
X111114272Y-72189163D01*
X111112113Y-72157552D01*
X111108817Y-72136569D01*
X111104151Y-72123227D01*
X111097883Y-72114539D01*
X111095607Y-72112350D01*
X111064060Y-72096186D01*
X111028172Y-72095003D01*
X110997055Y-72108264D01*
X110987069Y-72118757D01*
X110981571Y-72129671D01*
X110977318Y-72146583D01*
X110974160Y-72172167D01*
X110971948Y-72209099D01*
X110970534Y-72260054D01*
X110969768Y-72327706D01*
X110969502Y-72414731D01*
X110969495Y-72434406D01*
X110969553Y-72522889D01*
X110969873Y-72591573D01*
X110970673Y-72643236D01*
X110972173Y-72680655D01*
X110974591Y-72706610D01*
X110978146Y-72723878D01*
X110983058Y-72735238D01*
X110989545Y-72743468D01*
X110994202Y-72747983D01*
X111002451Y-72754779D01*
X111012671Y-72760088D01*
X111027540Y-72764094D01*
X111049738Y-72766979D01*
X111081947Y-72768926D01*
X111126844Y-72770119D01*
X111187112Y-72770739D01*
X111265429Y-72770971D01*
X111331346Y-72771000D01*
X111423712Y-72770929D01*
X111496223Y-72770592D01*
X111551603Y-72769802D01*
X111592575Y-72768374D01*
X111621862Y-72766121D01*
X111642187Y-72762857D01*
X111656274Y-72758396D01*
X111666845Y-72752552D01*
X111673529Y-72747603D01*
X111703273Y-72724206D01*
X111703273Y-72434026D01*
X111703080Y-72337457D01*
G36*
X111703065Y-71549491D02*
G01*
X111698704Y-71420512D01*
X111685479Y-71310809D01*
X111662599Y-71218574D01*
X111629270Y-71141998D01*
X111584702Y-71079273D01*
X111528104Y-71028588D01*
X111458682Y-70988137D01*
X111456989Y-70987341D01*
X111394857Y-70963199D01*
X111339831Y-70954597D01*
X111284453Y-70961569D01*
X111221267Y-70984146D01*
X111211651Y-70988428D01*
X111155374Y-71017628D01*
X111111889Y-71050444D01*
X111074923Y-71092798D01*
X111038205Y-71150610D01*
X111036288Y-71153969D01*
X111012113Y-71204296D01*
X110994058Y-71261179D01*
X110981501Y-71328273D01*
X110973818Y-71409235D01*
X110970387Y-71507718D01*
X110970089Y-71542514D01*
X110969495Y-71708206D01*
X110999240Y-71731603D01*
X111009021Y-71738543D01*
X111020443Y-71743958D01*
X111036245Y-71748035D01*
X111059165Y-71750963D01*
X111091944Y-71752933D01*
X111116251Y-71753575D01*
X111116251Y-71596956D01*
X111116251Y-71503074D01*
X111117857Y-71448136D01*
X111122085Y-71391740D01*
X111128048Y-71345455D01*
X111128550Y-71342661D01*
X111150604Y-71260452D01*
X111183740Y-71196686D01*
X111229493Y-71149348D01*
X111289401Y-71116418D01*
X111305279Y-71110692D01*
X111330007Y-71105079D01*
X111354438Y-71107509D01*
X111386940Y-71119333D01*
X111402906Y-71126460D01*
X111445334Y-71149800D01*
X111475100Y-71177920D01*
X111495829Y-71208860D01*
X111522803Y-71270834D01*
X111542342Y-71350149D01*
X111553594Y-71442547D01*
X111556070Y-71509467D01*
X111556518Y-71596956D01*
X111116251Y-71596956D01*
X111116251Y-71753575D01*
X111137319Y-71754132D01*
X111198029Y-71754750D01*
X111276814Y-71754975D01*
X111338420Y-71755000D01*
X111647855Y-71755000D01*
X111675564Y-71727291D01*
X111686796Y-71714994D01*
X111694487Y-71701697D01*
X111699300Y-71683128D01*
X111701894Y-71655014D01*
X111702930Y-71613083D01*
X111703070Y-71553063D01*
X111703065Y-71549491D01*
X111703065Y-71549491D01*
G37*
X111703065Y-71549491D02*
X111698704Y-71420512D01*
X111685479Y-71310809D01*
X111662599Y-71218574D01*
X111629270Y-71141998D01*
X111584702Y-71079273D01*
X111528104Y-71028588D01*
X111458682Y-70988137D01*
X111456989Y-70987341D01*
X111394857Y-70963199D01*
X111339831Y-70954597D01*
X111284453Y-70961569D01*
X111221267Y-70984146D01*
X111211651Y-70988428D01*
X111155374Y-71017628D01*
X111111889Y-71050444D01*
X111074923Y-71092798D01*
X111038205Y-71150610D01*
X111036288Y-71153969D01*
X111012113Y-71204296D01*
X110994058Y-71261179D01*
X110981501Y-71328273D01*
X110973818Y-71409235D01*
X110970387Y-71507718D01*
X110970089Y-71542514D01*
X110969495Y-71708206D01*
X110999240Y-71731603D01*
X111009021Y-71738543D01*
X111020443Y-71743958D01*
X111036245Y-71748035D01*
X111059165Y-71750963D01*
X111091944Y-71752933D01*
X111116251Y-71753575D01*
X111116251Y-71596956D01*
X111116251Y-71503074D01*
X111117857Y-71448136D01*
X111122085Y-71391740D01*
X111128048Y-71345455D01*
X111128550Y-71342661D01*
X111150604Y-71260452D01*
X111183740Y-71196686D01*
X111229493Y-71149348D01*
X111289401Y-71116418D01*
X111305279Y-71110692D01*
X111330007Y-71105079D01*
X111354438Y-71107509D01*
X111386940Y-71119333D01*
X111402906Y-71126460D01*
X111445334Y-71149800D01*
X111475100Y-71177920D01*
X111495829Y-71208860D01*
X111522803Y-71270834D01*
X111542342Y-71350149D01*
X111553594Y-71442547D01*
X111556070Y-71509467D01*
X111556518Y-71596956D01*
X111116251Y-71596956D01*
X111116251Y-71753575D01*
X111137319Y-71754132D01*
X111198029Y-71754750D01*
X111276814Y-71754975D01*
X111338420Y-71755000D01*
X111647855Y-71755000D01*
X111675564Y-71727291D01*
X111686796Y-71714994D01*
X111694487Y-71701697D01*
X111699300Y-71683128D01*
X111701894Y-71655014D01*
X111702930Y-71613083D01*
X111703070Y-71553063D01*
X111703065Y-71549491D01*
G36*
X111701306Y-68823135D02*
G01*
X111694305Y-68803545D01*
X111693963Y-68802790D01*
X111673662Y-68776187D01*
X111652779Y-68761530D01*
X111642988Y-68758662D01*
X111629979Y-68758804D01*
X111611445Y-68762839D01*
X111585083Y-68771654D01*
X111548588Y-68786131D01*
X111499653Y-68807155D01*
X111435975Y-68835612D01*
X111355247Y-68872385D01*
X111311124Y-68892625D01*
X111232355Y-68929175D01*
X111159917Y-68963485D01*
X111096460Y-68994248D01*
X111044632Y-69020152D01*
X111007081Y-69039890D01*
X110986456Y-69052150D01*
X110983607Y-69054576D01*
X110971038Y-69085617D01*
X110972721Y-69120679D01*
X110988008Y-69148800D01*
X110989251Y-69149946D01*
X111006186Y-69161132D01*
X111039170Y-69179896D01*
X111083960Y-69203925D01*
X111136308Y-69230903D01*
X111155598Y-69240599D01*
X111302190Y-69313786D01*
X111142947Y-69393560D01*
X111087925Y-69422033D01*
X111040208Y-69448450D01*
X111003447Y-69470652D01*
X110981296Y-69486481D01*
X110976599Y-69491846D01*
X110970238Y-69533543D01*
X110983607Y-69567951D01*
X110997894Y-69578072D01*
X111029648Y-69595586D01*
X111075743Y-69619065D01*
X111133055Y-69647080D01*
X111198460Y-69678201D01*
X111268833Y-69711001D01*
X111341049Y-69744050D01*
X111411985Y-69775919D01*
X111478515Y-69805181D01*
X111537514Y-69830405D01*
X111585859Y-69850164D01*
X111620425Y-69863028D01*
X111638087Y-69867569D01*
X111638727Y-69867523D01*
X111660952Y-69856474D01*
X111683587Y-69834390D01*
X111684572Y-69833090D01*
X111699915Y-69805947D01*
X111699766Y-69780842D01*
X111696874Y-69771432D01*
X111690622Y-69759966D01*
X111678326Y-69747790D01*
X111657432Y-69733443D01*
X111625391Y-69715464D01*
X111579652Y-69692393D01*
X111517663Y-69662770D01*
X111460442Y-69636055D01*
X111394114Y-69605320D01*
X111334466Y-69577779D01*
X111284615Y-69554862D01*
X111247676Y-69538002D01*
X111226767Y-69528627D01*
X111223495Y-69527260D01*
X111228843Y-69521111D01*
X111251231Y-69506978D01*
X111287394Y-69486743D01*
X111334063Y-69462285D01*
X111353318Y-69452552D01*
X111418336Y-69419583D01*
X111465686Y-69394157D01*
X111498121Y-69374188D01*
X111518394Y-69357590D01*
X111529258Y-69342276D01*
X111533465Y-69326160D01*
X111533940Y-69315657D01*
X111532298Y-69297130D01*
X111525509Y-69280896D01*
X111510774Y-69264765D01*
X111485296Y-69246549D01*
X111446279Y-69224061D01*
X111390926Y-69195111D01*
X111359437Y-69179138D01*
X111309253Y-69153230D01*
X111267636Y-69130633D01*
X111238098Y-69113342D01*
X111224151Y-69103350D01*
X111223570Y-69101991D01*
X111234547Y-69095539D01*
X111263050Y-69081092D01*
X111306096Y-69060097D01*
X111360702Y-69034003D01*
X111423886Y-69004254D01*
X111455269Y-68989620D01*
X111536262Y-68951550D01*
X111598584Y-68920895D01*
X111644269Y-68896063D01*
X111675351Y-68875463D01*
X111693862Y-68857502D01*
X111701836Y-68840590D01*
X111701306Y-68823135D01*
X111701306Y-68823135D01*
G37*
X111701306Y-68823135D02*
X111694305Y-68803545D01*
X111693963Y-68802790D01*
X111673662Y-68776187D01*
X111652779Y-68761530D01*
X111642988Y-68758662D01*
X111629979Y-68758804D01*
X111611445Y-68762839D01*
X111585083Y-68771654D01*
X111548588Y-68786131D01*
X111499653Y-68807155D01*
X111435975Y-68835612D01*
X111355247Y-68872385D01*
X111311124Y-68892625D01*
X111232355Y-68929175D01*
X111159917Y-68963485D01*
X111096460Y-68994248D01*
X111044632Y-69020152D01*
X111007081Y-69039890D01*
X110986456Y-69052150D01*
X110983607Y-69054576D01*
X110971038Y-69085617D01*
X110972721Y-69120679D01*
X110988008Y-69148800D01*
X110989251Y-69149946D01*
X111006186Y-69161132D01*
X111039170Y-69179896D01*
X111083960Y-69203925D01*
X111136308Y-69230903D01*
X111155598Y-69240599D01*
X111302190Y-69313786D01*
X111142947Y-69393560D01*
X111087925Y-69422033D01*
X111040208Y-69448450D01*
X111003447Y-69470652D01*
X110981296Y-69486481D01*
X110976599Y-69491846D01*
X110970238Y-69533543D01*
X110983607Y-69567951D01*
X110997894Y-69578072D01*
X111029648Y-69595586D01*
X111075743Y-69619065D01*
X111133055Y-69647080D01*
X111198460Y-69678201D01*
X111268833Y-69711001D01*
X111341049Y-69744050D01*
X111411985Y-69775919D01*
X111478515Y-69805181D01*
X111537514Y-69830405D01*
X111585859Y-69850164D01*
X111620425Y-69863028D01*
X111638087Y-69867569D01*
X111638727Y-69867523D01*
X111660952Y-69856474D01*
X111683587Y-69834390D01*
X111684572Y-69833090D01*
X111699915Y-69805947D01*
X111699766Y-69780842D01*
X111696874Y-69771432D01*
X111690622Y-69759966D01*
X111678326Y-69747790D01*
X111657432Y-69733443D01*
X111625391Y-69715464D01*
X111579652Y-69692393D01*
X111517663Y-69662770D01*
X111460442Y-69636055D01*
X111394114Y-69605320D01*
X111334466Y-69577779D01*
X111284615Y-69554862D01*
X111247676Y-69538002D01*
X111226767Y-69528627D01*
X111223495Y-69527260D01*
X111228843Y-69521111D01*
X111251231Y-69506978D01*
X111287394Y-69486743D01*
X111334063Y-69462285D01*
X111353318Y-69452552D01*
X111418336Y-69419583D01*
X111465686Y-69394157D01*
X111498121Y-69374188D01*
X111518394Y-69357590D01*
X111529258Y-69342276D01*
X111533465Y-69326160D01*
X111533940Y-69315657D01*
X111532298Y-69297130D01*
X111525509Y-69280896D01*
X111510774Y-69264765D01*
X111485296Y-69246549D01*
X111446279Y-69224061D01*
X111390926Y-69195111D01*
X111359437Y-69179138D01*
X111309253Y-69153230D01*
X111267636Y-69130633D01*
X111238098Y-69113342D01*
X111224151Y-69103350D01*
X111223570Y-69101991D01*
X111234547Y-69095539D01*
X111263050Y-69081092D01*
X111306096Y-69060097D01*
X111360702Y-69034003D01*
X111423886Y-69004254D01*
X111455269Y-68989620D01*
X111536262Y-68951550D01*
X111598584Y-68920895D01*
X111644269Y-68896063D01*
X111675351Y-68875463D01*
X111693862Y-68857502D01*
X111701836Y-68840590D01*
X111701306Y-68823135D01*
G36*
X111696463Y-68379186D02*
G01*
X111681693Y-68355473D01*
X111660113Y-68328822D01*
X111338567Y-68328822D01*
X111244510Y-68328907D01*
X111170408Y-68329271D01*
X111113636Y-68330076D01*
X111071572Y-68331487D01*
X111041592Y-68333667D01*
X111021073Y-68336779D01*
X111007391Y-68340986D01*
X110997924Y-68346452D01*
X110993258Y-68350328D01*
X110972765Y-68381766D01*
X110973601Y-68417567D01*
X110991076Y-68448927D01*
X111012656Y-68475578D01*
X111660113Y-68475578D01*
X111681693Y-68448927D01*
X111697391Y-68423206D01*
X111703273Y-68402200D01*
X111696463Y-68379186D01*
X111696463Y-68379186D01*
G37*
X111696463Y-68379186D02*
X111681693Y-68355473D01*
X111660113Y-68328822D01*
X111338567Y-68328822D01*
X111244510Y-68328907D01*
X111170408Y-68329271D01*
X111113636Y-68330076D01*
X111071572Y-68331487D01*
X111041592Y-68333667D01*
X111021073Y-68336779D01*
X111007391Y-68340986D01*
X110997924Y-68346452D01*
X110993258Y-68350328D01*
X110972765Y-68381766D01*
X110973601Y-68417567D01*
X110991076Y-68448927D01*
X111012656Y-68475578D01*
X111660113Y-68475578D01*
X111681693Y-68448927D01*
X111697391Y-68423206D01*
X111703273Y-68402200D01*
X111696463Y-68379186D01*
G36*
X111703177Y-67604735D02*
G01*
X111702798Y-67526028D01*
X111702007Y-67464937D01*
X111700670Y-67418983D01*
X111698657Y-67385686D01*
X111695834Y-67362564D01*
X111692071Y-67347138D01*
X111687235Y-67336929D01*
X111683518Y-67331987D01*
X111650982Y-67306343D01*
X111617202Y-67303241D01*
X111586514Y-67319089D01*
X111574251Y-67329452D01*
X111565890Y-67340604D01*
X111560683Y-67356765D01*
X111557883Y-67382158D01*
X111556744Y-67421002D01*
X111556519Y-67477520D01*
X111556518Y-67488620D01*
X111556518Y-67634556D01*
X111285584Y-67634556D01*
X111200186Y-67634652D01*
X111134476Y-67635089D01*
X111085566Y-67636088D01*
X111050567Y-67637872D01*
X111026591Y-67640663D01*
X111010747Y-67644683D01*
X111000149Y-67650155D01*
X110992073Y-67657134D01*
X110972228Y-67690066D01*
X110973792Y-67724446D01*
X110996434Y-67755624D01*
X110999240Y-67757914D01*
X111009848Y-67765371D01*
X111022259Y-67771053D01*
X111039490Y-67775199D01*
X111064556Y-67778050D01*
X111100473Y-67779846D01*
X111150257Y-67780828D01*
X111216923Y-67781236D01*
X111292751Y-67781311D01*
X111556518Y-67781311D01*
X111556518Y-67920673D01*
X111556922Y-67980478D01*
X111558500Y-68021882D01*
X111561793Y-68049052D01*
X111567348Y-68066154D01*
X111575709Y-68077357D01*
X111577162Y-68078717D01*
X111610401Y-68095075D01*
X111647978Y-68093628D01*
X111680695Y-68074822D01*
X111687042Y-68067550D01*
X111692074Y-68058173D01*
X111695944Y-68044191D01*
X111698803Y-68023104D01*
X111700805Y-67992411D01*
X111702101Y-67949611D01*
X111702842Y-67892205D01*
X111703182Y-67817690D01*
X111703272Y-67723567D01*
X111703273Y-67703540D01*
X111703177Y-67604735D01*
X111703177Y-67604735D01*
G37*
X111703177Y-67604735D02*
X111702798Y-67526028D01*
X111702007Y-67464937D01*
X111700670Y-67418983D01*
X111698657Y-67385686D01*
X111695834Y-67362564D01*
X111692071Y-67347138D01*
X111687235Y-67336929D01*
X111683518Y-67331987D01*
X111650982Y-67306343D01*
X111617202Y-67303241D01*
X111586514Y-67319089D01*
X111574251Y-67329452D01*
X111565890Y-67340604D01*
X111560683Y-67356765D01*
X111557883Y-67382158D01*
X111556744Y-67421002D01*
X111556519Y-67477520D01*
X111556518Y-67488620D01*
X111556518Y-67634556D01*
X111285584Y-67634556D01*
X111200186Y-67634652D01*
X111134476Y-67635089D01*
X111085566Y-67636088D01*
X111050567Y-67637872D01*
X111026591Y-67640663D01*
X111010747Y-67644683D01*
X111000149Y-67650155D01*
X110992073Y-67657134D01*
X110972228Y-67690066D01*
X110973792Y-67724446D01*
X110996434Y-67755624D01*
X110999240Y-67757914D01*
X111009848Y-67765371D01*
X111022259Y-67771053D01*
X111039490Y-67775199D01*
X111064556Y-67778050D01*
X111100473Y-67779846D01*
X111150257Y-67780828D01*
X111216923Y-67781236D01*
X111292751Y-67781311D01*
X111556518Y-67781311D01*
X111556518Y-67920673D01*
X111556922Y-67980478D01*
X111558500Y-68021882D01*
X111561793Y-68049052D01*
X111567348Y-68066154D01*
X111575709Y-68077357D01*
X111577162Y-68078717D01*
X111610401Y-68095075D01*
X111647978Y-68093628D01*
X111680695Y-68074822D01*
X111687042Y-68067550D01*
X111692074Y-68058173D01*
X111695944Y-68044191D01*
X111698803Y-68023104D01*
X111700805Y-67992411D01*
X111702101Y-67949611D01*
X111702842Y-67892205D01*
X111703182Y-67817690D01*
X111703272Y-67723567D01*
X111703273Y-67703540D01*
X111703177Y-67604735D01*
G36*
X111697807Y-66338977D02*
G01*
X111675564Y-66307598D01*
X111647855Y-66279889D01*
X111338420Y-66279889D01*
X111246541Y-66279962D01*
X111174500Y-66280305D01*
X111119560Y-66281108D01*
X111078980Y-66282559D01*
X111050023Y-66284848D01*
X111029949Y-66288164D01*
X111016019Y-66292695D01*
X111005495Y-66298631D01*
X110999240Y-66303286D01*
X110974667Y-66334017D01*
X110971999Y-66369304D01*
X110987069Y-66401555D01*
X110995966Y-66412212D01*
X111007783Y-66419336D01*
X111026814Y-66423633D01*
X111057348Y-66425809D01*
X111103678Y-66426572D01*
X111139469Y-66426645D01*
X111274295Y-66426645D01*
X111274295Y-66923356D01*
X111151640Y-66923356D01*
X111095553Y-66923869D01*
X111057007Y-66925924D01*
X111030979Y-66930292D01*
X111012443Y-66937744D01*
X110999240Y-66946753D01*
X110974736Y-66977656D01*
X110971834Y-67012604D01*
X110989251Y-67046062D01*
X110998381Y-67055196D01*
X111010485Y-67061648D01*
X111029339Y-67065903D01*
X111058720Y-67068448D01*
X111102403Y-67069771D01*
X111164165Y-67070357D01*
X111178340Y-67070425D01*
X111294709Y-67070909D01*
X111390613Y-67071159D01*
X111468163Y-67071077D01*
X111529471Y-67070569D01*
X111576650Y-67069538D01*
X111611810Y-67067887D01*
X111637064Y-67065521D01*
X111654523Y-67062343D01*
X111666299Y-67058256D01*
X111674505Y-67053166D01*
X111680695Y-67047534D01*
X111700496Y-67015672D01*
X111697807Y-66982443D01*
X111675564Y-66951065D01*
X111661214Y-66938367D01*
X111645362Y-66930274D01*
X111622786Y-66925758D01*
X111588262Y-66923794D01*
X111536564Y-66923356D01*
X111421051Y-66923356D01*
X111421051Y-66426645D01*
X111539584Y-66426645D01*
X111594192Y-66426138D01*
X111631065Y-66424102D01*
X111655033Y-66419765D01*
X111670925Y-66412353D01*
X111680695Y-66404067D01*
X111700496Y-66372206D01*
X111697807Y-66338977D01*
X111697807Y-66338977D01*
G37*
X111697807Y-66338977D02*
X111675564Y-66307598D01*
X111647855Y-66279889D01*
X111338420Y-66279889D01*
X111246541Y-66279962D01*
X111174500Y-66280305D01*
X111119560Y-66281108D01*
X111078980Y-66282559D01*
X111050023Y-66284848D01*
X111029949Y-66288164D01*
X111016019Y-66292695D01*
X111005495Y-66298631D01*
X110999240Y-66303286D01*
X110974667Y-66334017D01*
X110971999Y-66369304D01*
X110987069Y-66401555D01*
X110995966Y-66412212D01*
X111007783Y-66419336D01*
X111026814Y-66423633D01*
X111057348Y-66425809D01*
X111103678Y-66426572D01*
X111139469Y-66426645D01*
X111274295Y-66426645D01*
X111274295Y-66923356D01*
X111151640Y-66923356D01*
X111095553Y-66923869D01*
X111057007Y-66925924D01*
X111030979Y-66930292D01*
X111012443Y-66937744D01*
X110999240Y-66946753D01*
X110974736Y-66977656D01*
X110971834Y-67012604D01*
X110989251Y-67046062D01*
X110998381Y-67055196D01*
X111010485Y-67061648D01*
X111029339Y-67065903D01*
X111058720Y-67068448D01*
X111102403Y-67069771D01*
X111164165Y-67070357D01*
X111178340Y-67070425D01*
X111294709Y-67070909D01*
X111390613Y-67071159D01*
X111468163Y-67071077D01*
X111529471Y-67070569D01*
X111576650Y-67069538D01*
X111611810Y-67067887D01*
X111637064Y-67065521D01*
X111654523Y-67062343D01*
X111666299Y-67058256D01*
X111674505Y-67053166D01*
X111680695Y-67047534D01*
X111700496Y-67015672D01*
X111697807Y-66982443D01*
X111675564Y-66951065D01*
X111661214Y-66938367D01*
X111645362Y-66930274D01*
X111622786Y-66925758D01*
X111588262Y-66923794D01*
X111536564Y-66923356D01*
X111421051Y-66923356D01*
X111421051Y-66426645D01*
X111539584Y-66426645D01*
X111594192Y-66426138D01*
X111631065Y-66424102D01*
X111655033Y-66419765D01*
X111670925Y-66412353D01*
X111680695Y-66404067D01*
X111700496Y-66372206D01*
X111697807Y-66338977D01*
G36*
X116483286Y-75514200D02*
G01*
X116369347Y-75503335D01*
X116261724Y-75471718D01*
X116162725Y-75420815D01*
X116074656Y-75352093D01*
X115999824Y-75267019D01*
X115941956Y-75170032D01*
X115902335Y-75063764D01*
X115883767Y-74956750D01*
X115884906Y-74851100D01*
X115904410Y-74748925D01*
X115940934Y-74652334D01*
X115993135Y-74563438D01*
X116059667Y-74484346D01*
X116139188Y-74417169D01*
X116230353Y-74364017D01*
X116331817Y-74326999D01*
X116442238Y-74308227D01*
X116492134Y-74306289D01*
X116580073Y-74306289D01*
X116580073Y-74254360D01*
X116577229Y-74218053D01*
X116565429Y-74191155D01*
X116541691Y-74164049D01*
X116503309Y-74125667D01*
X114311738Y-74125667D01*
X114049601Y-74125676D01*
X113809099Y-74125708D01*
X113589292Y-74125772D01*
X113389239Y-74125876D01*
X113207996Y-74126027D01*
X113044624Y-74126234D01*
X112898180Y-74126506D01*
X112767723Y-74126850D01*
X112652311Y-74127274D01*
X112551002Y-74127787D01*
X112462856Y-74128397D01*
X112386930Y-74129112D01*
X112322283Y-74129940D01*
X112267973Y-74130889D01*
X112223060Y-74131967D01*
X112186600Y-74133183D01*
X112157653Y-74134545D01*
X112135277Y-74136061D01*
X112118531Y-74137738D01*
X112106472Y-74139586D01*
X112098160Y-74141613D01*
X112092653Y-74143825D01*
X112090803Y-74144908D01*
X112083791Y-74149071D01*
X112077344Y-74152605D01*
X112071440Y-74156435D01*
X112066054Y-74161482D01*
X112061162Y-74168671D01*
X112056742Y-74178923D01*
X112052768Y-74193164D01*
X112049219Y-74212314D01*
X112046070Y-74237299D01*
X112043298Y-74269040D01*
X112040879Y-74308462D01*
X112038789Y-74356486D01*
X112037005Y-74414037D01*
X112035503Y-74482037D01*
X112034260Y-74561410D01*
X112033251Y-74653079D01*
X112032455Y-74757966D01*
X112031846Y-74876996D01*
X112031401Y-75011090D01*
X112031097Y-75161173D01*
X112030910Y-75328167D01*
X112030816Y-75512996D01*
X112030792Y-75716583D01*
X112030815Y-75939850D01*
X112030860Y-76183722D01*
X112030903Y-76449121D01*
X112030908Y-76487504D01*
X112030951Y-76754482D01*
X112031022Y-76999802D01*
X112031127Y-77224383D01*
X112031274Y-77429145D01*
X112031471Y-77615006D01*
X112031724Y-77782888D01*
X112032040Y-77933708D01*
X112032427Y-78068387D01*
X112032893Y-78187844D01*
X112033443Y-78292999D01*
X112034087Y-78384771D01*
X112034829Y-78464079D01*
X112035679Y-78531843D01*
X112036643Y-78588982D01*
X112037729Y-78636417D01*
X112038943Y-78675066D01*
X112040293Y-78705849D01*
X112041785Y-78729685D01*
X112043429Y-78747494D01*
X112045229Y-78760195D01*
X112047195Y-78768708D01*
X112048863Y-78773066D01*
X112052434Y-78781528D01*
X112055070Y-78789297D01*
X112057706Y-78796402D01*
X112061278Y-78802873D01*
X112066719Y-78808739D01*
X112074965Y-78814029D01*
X112086950Y-78818774D01*
X112103609Y-78823002D01*
X112125877Y-78826743D01*
X112154688Y-78830027D01*
X112190977Y-78832883D01*
X112235679Y-78835340D01*
X112289729Y-78837429D01*
X112354061Y-78839178D01*
X112429610Y-78840617D01*
X112517310Y-78841776D01*
X112618097Y-78842683D01*
X112732906Y-78843369D01*
X112862670Y-78843863D01*
X113008325Y-78844195D01*
X113170805Y-78844393D01*
X113351045Y-78844487D01*
X113549980Y-78844508D01*
X113768544Y-78844485D01*
X114007672Y-78844446D01*
X114268300Y-78844422D01*
X114310451Y-78844422D01*
X114573348Y-78844436D01*
X114814608Y-78844461D01*
X115035175Y-78844471D01*
X115235988Y-78844442D01*
X115417991Y-78844348D01*
X115582124Y-78844162D01*
X115729329Y-78843859D01*
X115860548Y-78843414D01*
X115970473Y-78842834D01*
X115970473Y-78539997D01*
X115912629Y-78500207D01*
X115896861Y-78489036D01*
X115882899Y-78478966D01*
X115869556Y-78469938D01*
X115855647Y-78461897D01*
X115839984Y-78454786D01*
X115821382Y-78448547D01*
X115798654Y-78443125D01*
X115770613Y-78438462D01*
X115736073Y-78434501D01*
X115693848Y-78431185D01*
X115642751Y-78428459D01*
X115581596Y-78426264D01*
X115509196Y-78424545D01*
X115424365Y-78423244D01*
X115325918Y-78422305D01*
X115212666Y-78421670D01*
X115083424Y-78421284D01*
X114937006Y-78421088D01*
X114772224Y-78421027D01*
X114587893Y-78421043D01*
X114382827Y-78421080D01*
X114260207Y-78421089D01*
X114043258Y-78421065D01*
X113847698Y-78421031D01*
X113672341Y-78421043D01*
X113515999Y-78421158D01*
X113377483Y-78421430D01*
X113255606Y-78421918D01*
X113149180Y-78422676D01*
X113057018Y-78423762D01*
X112977931Y-78425231D01*
X112910732Y-78427140D01*
X112854233Y-78429544D01*
X112807247Y-78432501D01*
X112768585Y-78436066D01*
X112737060Y-78440295D01*
X112711485Y-78445246D01*
X112690670Y-78450973D01*
X112673429Y-78457533D01*
X112658575Y-78464983D01*
X112644918Y-78473379D01*
X112631271Y-78482776D01*
X112616447Y-78493232D01*
X112607557Y-78499323D01*
X112549940Y-78538096D01*
X112549940Y-78006532D01*
X112549975Y-77883283D01*
X112550125Y-77780787D01*
X112550462Y-77697220D01*
X112551054Y-77630756D01*
X112551973Y-77579571D01*
X112553289Y-77541841D01*
X112555071Y-77515740D01*
X112557389Y-77499444D01*
X112560314Y-77491128D01*
X112563916Y-77488968D01*
X112568265Y-77491139D01*
X112569695Y-77492335D01*
X112606767Y-77517485D01*
X112659568Y-77543383D01*
X112721570Y-77566992D01*
X112747983Y-77575261D01*
X112765924Y-77579878D01*
X112786985Y-77583779D01*
X112813251Y-77587048D01*
X112846808Y-77589766D01*
X112889741Y-77592015D01*
X112944136Y-77593877D01*
X113012078Y-77595436D01*
X113095652Y-77596772D01*
X113196945Y-77597969D01*
X113318040Y-77599108D01*
X113362740Y-77599485D01*
X113487891Y-77600502D01*
X113592258Y-77601260D01*
X113677633Y-77601703D01*
X113745807Y-77601770D01*
X113798575Y-77601405D01*
X113837726Y-77600548D01*
X113865055Y-77599141D01*
X113882354Y-77597125D01*
X113891414Y-77594443D01*
X113894028Y-77591036D01*
X113891989Y-77586844D01*
X113887673Y-77582371D01*
X113874738Y-77572016D01*
X113845664Y-77549958D01*
X113802581Y-77517757D01*
X113747622Y-77476974D01*
X113682917Y-77429170D01*
X113610598Y-77375905D01*
X113532796Y-77318740D01*
X113451642Y-77259237D01*
X113369268Y-77198955D01*
X113287804Y-77139455D01*
X113209383Y-77082298D01*
X113136136Y-77029045D01*
X113070193Y-76981257D01*
X113013686Y-76940493D01*
X112968747Y-76908316D01*
X112937506Y-76886285D01*
X112930874Y-76881717D01*
X112893971Y-76858796D01*
X112845981Y-76831988D01*
X112796443Y-76806589D01*
X112789763Y-76803368D01*
X112741568Y-76781690D01*
X112704006Y-76769104D01*
X112668180Y-76763374D01*
X112626140Y-76762256D01*
X112549940Y-76762890D01*
X112549940Y-75608451D01*
X112643671Y-75699615D01*
X112693565Y-75746412D01*
X112750045Y-75796699D01*
X112804314Y-75842744D01*
X112829667Y-75863169D01*
X112869212Y-75893607D01*
X112922424Y-75933662D01*
X112987673Y-75982161D01*
X113063329Y-76037935D01*
X113147763Y-76099811D01*
X113239346Y-76166619D01*
X113336448Y-76237187D01*
X113437439Y-76310345D01*
X113540690Y-76384921D01*
X113644572Y-76459744D01*
X113747455Y-76533643D01*
X113847709Y-76605446D01*
X113943704Y-76673984D01*
X114033813Y-76738084D01*
X114116404Y-76796575D01*
X114189848Y-76848286D01*
X114252516Y-76892047D01*
X114302779Y-76926685D01*
X114339006Y-76951030D01*
X114359569Y-76963911D01*
X114363672Y-76965669D01*
X114374998Y-76957710D01*
X114402178Y-76936915D01*
X114443511Y-76904647D01*
X114497296Y-76862270D01*
X114561834Y-76811147D01*
X114635422Y-76752641D01*
X114716362Y-76688114D01*
X114802952Y-76618931D01*
X114893492Y-76546453D01*
X114986280Y-76472046D01*
X115060638Y-76412317D01*
X115060638Y-75401311D01*
X115047681Y-75395402D01*
X115025432Y-75381072D01*
X115023949Y-75380025D01*
X114993796Y-75361238D01*
X114956965Y-75341591D01*
X114948829Y-75337692D01*
X114940400Y-75334156D01*
X114930281Y-75331030D01*
X114917080Y-75328286D01*
X114899402Y-75325892D01*
X114875856Y-75323819D01*
X114845047Y-75322035D01*
X114805583Y-75320512D01*
X114756071Y-75319219D01*
X114695117Y-75318126D01*
X114621329Y-75317203D01*
X114533312Y-75316419D01*
X114429675Y-75315745D01*
X114309024Y-75315150D01*
X114169966Y-75314605D01*
X114011108Y-75314079D01*
X113832251Y-75313545D01*
X113647133Y-75313006D01*
X113483195Y-75312572D01*
X113339037Y-75312309D01*
X113213261Y-75312284D01*
X113104469Y-75312565D01*
X113011263Y-75313219D01*
X112932243Y-75314314D01*
X112866012Y-75315918D01*
X112811170Y-75318097D01*
X112766319Y-75320919D01*
X112730062Y-75324451D01*
X112700999Y-75328761D01*
X112677731Y-75333917D01*
X112658861Y-75339985D01*
X112642989Y-75347033D01*
X112628718Y-75355129D01*
X112614649Y-75364340D01*
X112602182Y-75372840D01*
X112575888Y-75389976D01*
X112558303Y-75400122D01*
X112555083Y-75401311D01*
X112554006Y-75390404D01*
X112553005Y-75359211D01*
X112552105Y-75310023D01*
X112551330Y-75245133D01*
X112550703Y-75166830D01*
X112550249Y-75077407D01*
X112549991Y-74979156D01*
X112549940Y-74910245D01*
X112550160Y-74805252D01*
X112550792Y-74708410D01*
X112551791Y-74621907D01*
X112553113Y-74547932D01*
X112554714Y-74488674D01*
X112556549Y-74446320D01*
X112558575Y-74423060D01*
X112559847Y-74419178D01*
X112574749Y-74426876D01*
X112582780Y-74434874D01*
X112599906Y-74448046D01*
X112630157Y-74465285D01*
X112654718Y-74477207D01*
X112713629Y-74503845D01*
X113890495Y-74506920D01*
X115067362Y-74509995D01*
X115067362Y-74955653D01*
X115067198Y-75053470D01*
X115066729Y-75143864D01*
X115065993Y-75224430D01*
X115065024Y-75292762D01*
X115063860Y-75346456D01*
X115062537Y-75383105D01*
X115061091Y-75400304D01*
X115060638Y-75401311D01*
X115060638Y-76412317D01*
X115079618Y-76397070D01*
X115171803Y-76322890D01*
X115261136Y-76250869D01*
X115345916Y-76182369D01*
X115424442Y-76118755D01*
X115495014Y-76061388D01*
X115555931Y-76011633D01*
X115605493Y-75970852D01*
X115626162Y-75953688D01*
X115726824Y-75867396D01*
X115810081Y-75790797D01*
X115877902Y-75721983D01*
X115932251Y-75659048D01*
X115939618Y-75649667D01*
X115970223Y-75610156D01*
X115970473Y-76741916D01*
X115922496Y-76736627D01*
X115865152Y-76739930D01*
X115796877Y-76761461D01*
X115717128Y-76801435D01*
X115644845Y-76846743D01*
X115622200Y-76862961D01*
X115584644Y-76891014D01*
X115534319Y-76929230D01*
X115473367Y-76975937D01*
X115403929Y-77029461D01*
X115328146Y-77088131D01*
X115248160Y-77150275D01*
X115166112Y-77214221D01*
X115084144Y-77278295D01*
X115004397Y-77340827D01*
X114929013Y-77400143D01*
X114860133Y-77454571D01*
X114799898Y-77502439D01*
X114750451Y-77542075D01*
X114713932Y-77571806D01*
X114692482Y-77589961D01*
X114689184Y-77593020D01*
X114697191Y-77595879D01*
X114727485Y-77598093D01*
X114779784Y-77599657D01*
X114853809Y-77600567D01*
X114949277Y-77600820D01*
X115065906Y-77600413D01*
X115185895Y-77599504D01*
X115318007Y-77598182D01*
X115429746Y-77596657D01*
X115523315Y-77594681D01*
X115600921Y-77592006D01*
X115664766Y-77588382D01*
X115717057Y-77583561D01*
X115759996Y-77577294D01*
X115795789Y-77569332D01*
X115826640Y-77559427D01*
X115854754Y-77547331D01*
X115882335Y-77532793D01*
X115907374Y-77518111D01*
X115970473Y-77480114D01*
X115970473Y-78539997D01*
X115970473Y-78842834D01*
X115976723Y-78842801D01*
X116078796Y-78841995D01*
X116167707Y-78840970D01*
X116244399Y-78839700D01*
X116309813Y-78838160D01*
X116364891Y-78836324D01*
X116410575Y-78834167D01*
X116447806Y-78831663D01*
X116477527Y-78828787D01*
X116500678Y-78825513D01*
X116518201Y-78821815D01*
X116531039Y-78817669D01*
X116540132Y-78813047D01*
X116546422Y-78807926D01*
X116550852Y-78802278D01*
X116554362Y-78796079D01*
X116557895Y-78789304D01*
X116561464Y-78783308D01*
X116564040Y-78778075D01*
X116566368Y-78769899D01*
X116568462Y-78757686D01*
X116570333Y-78740341D01*
X116571993Y-78716769D01*
X116573456Y-78685877D01*
X116574732Y-78646568D01*
X116575836Y-78597750D01*
X116576779Y-78538327D01*
X116577573Y-78467204D01*
X116578231Y-78383288D01*
X116578765Y-78285483D01*
X116579187Y-78172694D01*
X116579511Y-78043829D01*
X116579748Y-77897791D01*
X116579910Y-77733486D01*
X116580010Y-77549820D01*
X116580060Y-77345697D01*
X116580073Y-77134553D01*
X116580073Y-75514200D01*
X116483286Y-75514200D01*
X116483286Y-75514200D01*
G37*
X116483286Y-75514200D02*
X116369347Y-75503335D01*
X116261724Y-75471718D01*
X116162725Y-75420815D01*
X116074656Y-75352093D01*
X115999824Y-75267019D01*
X115941956Y-75170032D01*
X115902335Y-75063764D01*
X115883767Y-74956750D01*
X115884906Y-74851100D01*
X115904410Y-74748925D01*
X115940934Y-74652334D01*
X115993135Y-74563438D01*
X116059667Y-74484346D01*
X116139188Y-74417169D01*
X116230353Y-74364017D01*
X116331817Y-74326999D01*
X116442238Y-74308227D01*
X116492134Y-74306289D01*
X116580073Y-74306289D01*
X116580073Y-74254360D01*
X116577229Y-74218053D01*
X116565429Y-74191155D01*
X116541691Y-74164049D01*
X116503309Y-74125667D01*
X114311738Y-74125667D01*
X114049601Y-74125676D01*
X113809099Y-74125708D01*
X113589292Y-74125772D01*
X113389239Y-74125876D01*
X113207996Y-74126027D01*
X113044624Y-74126234D01*
X112898180Y-74126506D01*
X112767723Y-74126850D01*
X112652311Y-74127274D01*
X112551002Y-74127787D01*
X112462856Y-74128397D01*
X112386930Y-74129112D01*
X112322283Y-74129940D01*
X112267973Y-74130889D01*
X112223060Y-74131967D01*
X112186600Y-74133183D01*
X112157653Y-74134545D01*
X112135277Y-74136061D01*
X112118531Y-74137738D01*
X112106472Y-74139586D01*
X112098160Y-74141613D01*
X112092653Y-74143825D01*
X112090803Y-74144908D01*
X112083791Y-74149071D01*
X112077344Y-74152605D01*
X112071440Y-74156435D01*
X112066054Y-74161482D01*
X112061162Y-74168671D01*
X112056742Y-74178923D01*
X112052768Y-74193164D01*
X112049219Y-74212314D01*
X112046070Y-74237299D01*
X112043298Y-74269040D01*
X112040879Y-74308462D01*
X112038789Y-74356486D01*
X112037005Y-74414037D01*
X112035503Y-74482037D01*
X112034260Y-74561410D01*
X112033251Y-74653079D01*
X112032455Y-74757966D01*
X112031846Y-74876996D01*
X112031401Y-75011090D01*
X112031097Y-75161173D01*
X112030910Y-75328167D01*
X112030816Y-75512996D01*
X112030792Y-75716583D01*
X112030815Y-75939850D01*
X112030860Y-76183722D01*
X112030903Y-76449121D01*
X112030908Y-76487504D01*
X112030951Y-76754482D01*
X112031022Y-76999802D01*
X112031127Y-77224383D01*
X112031274Y-77429145D01*
X112031471Y-77615006D01*
X112031724Y-77782888D01*
X112032040Y-77933708D01*
X112032427Y-78068387D01*
X112032893Y-78187844D01*
X112033443Y-78292999D01*
X112034087Y-78384771D01*
X112034829Y-78464079D01*
X112035679Y-78531843D01*
X112036643Y-78588982D01*
X112037729Y-78636417D01*
X112038943Y-78675066D01*
X112040293Y-78705849D01*
X112041785Y-78729685D01*
X112043429Y-78747494D01*
X112045229Y-78760195D01*
X112047195Y-78768708D01*
X112048863Y-78773066D01*
X112052434Y-78781528D01*
X112055070Y-78789297D01*
X112057706Y-78796402D01*
X112061278Y-78802873D01*
X112066719Y-78808739D01*
X112074965Y-78814029D01*
X112086950Y-78818774D01*
X112103609Y-78823002D01*
X112125877Y-78826743D01*
X112154688Y-78830027D01*
X112190977Y-78832883D01*
X112235679Y-78835340D01*
X112289729Y-78837429D01*
X112354061Y-78839178D01*
X112429610Y-78840617D01*
X112517310Y-78841776D01*
X112618097Y-78842683D01*
X112732906Y-78843369D01*
X112862670Y-78843863D01*
X113008325Y-78844195D01*
X113170805Y-78844393D01*
X113351045Y-78844487D01*
X113549980Y-78844508D01*
X113768544Y-78844485D01*
X114007672Y-78844446D01*
X114268300Y-78844422D01*
X114310451Y-78844422D01*
X114573348Y-78844436D01*
X114814608Y-78844461D01*
X115035175Y-78844471D01*
X115235988Y-78844442D01*
X115417991Y-78844348D01*
X115582124Y-78844162D01*
X115729329Y-78843859D01*
X115860548Y-78843414D01*
X115970473Y-78842834D01*
X115970473Y-78539997D01*
X115912629Y-78500207D01*
X115896861Y-78489036D01*
X115882899Y-78478966D01*
X115869556Y-78469938D01*
X115855647Y-78461897D01*
X115839984Y-78454786D01*
X115821382Y-78448547D01*
X115798654Y-78443125D01*
X115770613Y-78438462D01*
X115736073Y-78434501D01*
X115693848Y-78431185D01*
X115642751Y-78428459D01*
X115581596Y-78426264D01*
X115509196Y-78424545D01*
X115424365Y-78423244D01*
X115325918Y-78422305D01*
X115212666Y-78421670D01*
X115083424Y-78421284D01*
X114937006Y-78421088D01*
X114772224Y-78421027D01*
X114587893Y-78421043D01*
X114382827Y-78421080D01*
X114260207Y-78421089D01*
X114043258Y-78421065D01*
X113847698Y-78421031D01*
X113672341Y-78421043D01*
X113515999Y-78421158D01*
X113377483Y-78421430D01*
X113255606Y-78421918D01*
X113149180Y-78422676D01*
X113057018Y-78423762D01*
X112977931Y-78425231D01*
X112910732Y-78427140D01*
X112854233Y-78429544D01*
X112807247Y-78432501D01*
X112768585Y-78436066D01*
X112737060Y-78440295D01*
X112711485Y-78445246D01*
X112690670Y-78450973D01*
X112673429Y-78457533D01*
X112658575Y-78464983D01*
X112644918Y-78473379D01*
X112631271Y-78482776D01*
X112616447Y-78493232D01*
X112607557Y-78499323D01*
X112549940Y-78538096D01*
X112549940Y-78006532D01*
X112549975Y-77883283D01*
X112550125Y-77780787D01*
X112550462Y-77697220D01*
X112551054Y-77630756D01*
X112551973Y-77579571D01*
X112553289Y-77541841D01*
X112555071Y-77515740D01*
X112557389Y-77499444D01*
X112560314Y-77491128D01*
X112563916Y-77488968D01*
X112568265Y-77491139D01*
X112569695Y-77492335D01*
X112606767Y-77517485D01*
X112659568Y-77543383D01*
X112721570Y-77566992D01*
X112747983Y-77575261D01*
X112765924Y-77579878D01*
X112786985Y-77583779D01*
X112813251Y-77587048D01*
X112846808Y-77589766D01*
X112889741Y-77592015D01*
X112944136Y-77593877D01*
X113012078Y-77595436D01*
X113095652Y-77596772D01*
X113196945Y-77597969D01*
X113318040Y-77599108D01*
X113362740Y-77599485D01*
X113487891Y-77600502D01*
X113592258Y-77601260D01*
X113677633Y-77601703D01*
X113745807Y-77601770D01*
X113798575Y-77601405D01*
X113837726Y-77600548D01*
X113865055Y-77599141D01*
X113882354Y-77597125D01*
X113891414Y-77594443D01*
X113894028Y-77591036D01*
X113891989Y-77586844D01*
X113887673Y-77582371D01*
X113874738Y-77572016D01*
X113845664Y-77549958D01*
X113802581Y-77517757D01*
X113747622Y-77476974D01*
X113682917Y-77429170D01*
X113610598Y-77375905D01*
X113532796Y-77318740D01*
X113451642Y-77259237D01*
X113369268Y-77198955D01*
X113287804Y-77139455D01*
X113209383Y-77082298D01*
X113136136Y-77029045D01*
X113070193Y-76981257D01*
X113013686Y-76940493D01*
X112968747Y-76908316D01*
X112937506Y-76886285D01*
X112930874Y-76881717D01*
X112893971Y-76858796D01*
X112845981Y-76831988D01*
X112796443Y-76806589D01*
X112789763Y-76803368D01*
X112741568Y-76781690D01*
X112704006Y-76769104D01*
X112668180Y-76763374D01*
X112626140Y-76762256D01*
X112549940Y-76762890D01*
X112549940Y-75608451D01*
X112643671Y-75699615D01*
X112693565Y-75746412D01*
X112750045Y-75796699D01*
X112804314Y-75842744D01*
X112829667Y-75863169D01*
X112869212Y-75893607D01*
X112922424Y-75933662D01*
X112987673Y-75982161D01*
X113063329Y-76037935D01*
X113147763Y-76099811D01*
X113239346Y-76166619D01*
X113336448Y-76237187D01*
X113437439Y-76310345D01*
X113540690Y-76384921D01*
X113644572Y-76459744D01*
X113747455Y-76533643D01*
X113847709Y-76605446D01*
X113943704Y-76673984D01*
X114033813Y-76738084D01*
X114116404Y-76796575D01*
X114189848Y-76848286D01*
X114252516Y-76892047D01*
X114302779Y-76926685D01*
X114339006Y-76951030D01*
X114359569Y-76963911D01*
X114363672Y-76965669D01*
X114374998Y-76957710D01*
X114402178Y-76936915D01*
X114443511Y-76904647D01*
X114497296Y-76862270D01*
X114561834Y-76811147D01*
X114635422Y-76752641D01*
X114716362Y-76688114D01*
X114802952Y-76618931D01*
X114893492Y-76546453D01*
X114986280Y-76472046D01*
X115060638Y-76412317D01*
X115060638Y-75401311D01*
X115047681Y-75395402D01*
X115025432Y-75381072D01*
X115023949Y-75380025D01*
X114993796Y-75361238D01*
X114956965Y-75341591D01*
X114948829Y-75337692D01*
X114940400Y-75334156D01*
X114930281Y-75331030D01*
X114917080Y-75328286D01*
X114899402Y-75325892D01*
X114875856Y-75323819D01*
X114845047Y-75322035D01*
X114805583Y-75320512D01*
X114756071Y-75319219D01*
X114695117Y-75318126D01*
X114621329Y-75317203D01*
X114533312Y-75316419D01*
X114429675Y-75315745D01*
X114309024Y-75315150D01*
X114169966Y-75314605D01*
X114011108Y-75314079D01*
X113832251Y-75313545D01*
X113647133Y-75313006D01*
X113483195Y-75312572D01*
X113339037Y-75312309D01*
X113213261Y-75312284D01*
X113104469Y-75312565D01*
X113011263Y-75313219D01*
X112932243Y-75314314D01*
X112866012Y-75315918D01*
X112811170Y-75318097D01*
X112766319Y-75320919D01*
X112730062Y-75324451D01*
X112700999Y-75328761D01*
X112677731Y-75333917D01*
X112658861Y-75339985D01*
X112642989Y-75347033D01*
X112628718Y-75355129D01*
X112614649Y-75364340D01*
X112602182Y-75372840D01*
X112575888Y-75389976D01*
X112558303Y-75400122D01*
X112555083Y-75401311D01*
X112554006Y-75390404D01*
X112553005Y-75359211D01*
X112552105Y-75310023D01*
X112551330Y-75245133D01*
X112550703Y-75166830D01*
X112550249Y-75077407D01*
X112549991Y-74979156D01*
X112549940Y-74910245D01*
X112550160Y-74805252D01*
X112550792Y-74708410D01*
X112551791Y-74621907D01*
X112553113Y-74547932D01*
X112554714Y-74488674D01*
X112556549Y-74446320D01*
X112558575Y-74423060D01*
X112559847Y-74419178D01*
X112574749Y-74426876D01*
X112582780Y-74434874D01*
X112599906Y-74448046D01*
X112630157Y-74465285D01*
X112654718Y-74477207D01*
X112713629Y-74503845D01*
X113890495Y-74506920D01*
X115067362Y-74509995D01*
X115067362Y-74955653D01*
X115067198Y-75053470D01*
X115066729Y-75143864D01*
X115065993Y-75224430D01*
X115065024Y-75292762D01*
X115063860Y-75346456D01*
X115062537Y-75383105D01*
X115061091Y-75400304D01*
X115060638Y-75401311D01*
X115060638Y-76412317D01*
X115079618Y-76397070D01*
X115171803Y-76322890D01*
X115261136Y-76250869D01*
X115345916Y-76182369D01*
X115424442Y-76118755D01*
X115495014Y-76061388D01*
X115555931Y-76011633D01*
X115605493Y-75970852D01*
X115626162Y-75953688D01*
X115726824Y-75867396D01*
X115810081Y-75790797D01*
X115877902Y-75721983D01*
X115932251Y-75659048D01*
X115939618Y-75649667D01*
X115970223Y-75610156D01*
X115970473Y-76741916D01*
X115922496Y-76736627D01*
X115865152Y-76739930D01*
X115796877Y-76761461D01*
X115717128Y-76801435D01*
X115644845Y-76846743D01*
X115622200Y-76862961D01*
X115584644Y-76891014D01*
X115534319Y-76929230D01*
X115473367Y-76975937D01*
X115403929Y-77029461D01*
X115328146Y-77088131D01*
X115248160Y-77150275D01*
X115166112Y-77214221D01*
X115084144Y-77278295D01*
X115004397Y-77340827D01*
X114929013Y-77400143D01*
X114860133Y-77454571D01*
X114799898Y-77502439D01*
X114750451Y-77542075D01*
X114713932Y-77571806D01*
X114692482Y-77589961D01*
X114689184Y-77593020D01*
X114697191Y-77595879D01*
X114727485Y-77598093D01*
X114779784Y-77599657D01*
X114853809Y-77600567D01*
X114949277Y-77600820D01*
X115065906Y-77600413D01*
X115185895Y-77599504D01*
X115318007Y-77598182D01*
X115429746Y-77596657D01*
X115523315Y-77594681D01*
X115600921Y-77592006D01*
X115664766Y-77588382D01*
X115717057Y-77583561D01*
X115759996Y-77577294D01*
X115795789Y-77569332D01*
X115826640Y-77559427D01*
X115854754Y-77547331D01*
X115882335Y-77532793D01*
X115907374Y-77518111D01*
X115970473Y-77480114D01*
X115970473Y-78539997D01*
X115970473Y-78842834D01*
X115976723Y-78842801D01*
X116078796Y-78841995D01*
X116167707Y-78840970D01*
X116244399Y-78839700D01*
X116309813Y-78838160D01*
X116364891Y-78836324D01*
X116410575Y-78834167D01*
X116447806Y-78831663D01*
X116477527Y-78828787D01*
X116500678Y-78825513D01*
X116518201Y-78821815D01*
X116531039Y-78817669D01*
X116540132Y-78813047D01*
X116546422Y-78807926D01*
X116550852Y-78802278D01*
X116554362Y-78796079D01*
X116557895Y-78789304D01*
X116561464Y-78783308D01*
X116564040Y-78778075D01*
X116566368Y-78769899D01*
X116568462Y-78757686D01*
X116570333Y-78740341D01*
X116571993Y-78716769D01*
X116573456Y-78685877D01*
X116574732Y-78646568D01*
X116575836Y-78597750D01*
X116576779Y-78538327D01*
X116577573Y-78467204D01*
X116578231Y-78383288D01*
X116578765Y-78285483D01*
X116579187Y-78172694D01*
X116579511Y-78043829D01*
X116579748Y-77897791D01*
X116579910Y-77733486D01*
X116580010Y-77549820D01*
X116580060Y-77345697D01*
X116580073Y-77134553D01*
X116580073Y-75514200D01*
X116483286Y-75514200D01*
G36*
X116023269Y-72239371D02*
G01*
X116002095Y-72079230D01*
X115961955Y-71915290D01*
X115902451Y-71745487D01*
X115823186Y-71567757D01*
X115817641Y-71556490D01*
X115789615Y-71498795D01*
X115765538Y-71447248D01*
X115747091Y-71405609D01*
X115735954Y-71377638D01*
X115733407Y-71368067D01*
X115728399Y-71348850D01*
X115724193Y-71344239D01*
X115713760Y-71349342D01*
X115687472Y-71365382D01*
X115648083Y-71390512D01*
X115598349Y-71422886D01*
X115541025Y-71460657D01*
X115478864Y-71501978D01*
X115414622Y-71545002D01*
X115351055Y-71587883D01*
X115290915Y-71628774D01*
X115236960Y-71665829D01*
X115191943Y-71697200D01*
X115158619Y-71721041D01*
X115139743Y-71735506D01*
X115137553Y-71737491D01*
X115142202Y-71747609D01*
X115159378Y-71769950D01*
X115185900Y-71800520D01*
X115200376Y-71816264D01*
X115275658Y-71912753D01*
X115331099Y-72019464D01*
X115366199Y-72134968D01*
X115380460Y-72257838D01*
X115379289Y-72327239D01*
X115362128Y-72448377D01*
X115326246Y-72557595D01*
X115271381Y-72655218D01*
X115197270Y-72741572D01*
X115103652Y-72816985D01*
X114990264Y-72881782D01*
X114903673Y-72919199D01*
X114767974Y-72963052D01*
X114620490Y-72995372D01*
X114465026Y-73016243D01*
X114305384Y-73025749D01*
X114145367Y-73023973D01*
X113988779Y-73010997D01*
X113839422Y-72986906D01*
X113701100Y-72951782D01*
X113577616Y-72905708D01*
X113543362Y-72889427D01*
X113429276Y-72821180D01*
X113332783Y-72740721D01*
X113254670Y-72649230D01*
X113195723Y-72547889D01*
X113156728Y-72437880D01*
X113138472Y-72320385D01*
X113137129Y-72278917D01*
X113148050Y-72157359D01*
X113180866Y-72036922D01*
X113234901Y-71919134D01*
X113309475Y-71805523D01*
X113387801Y-71714115D01*
X113432332Y-71667585D01*
X113135069Y-71486317D01*
X113060907Y-71441220D01*
X112992694Y-71399981D01*
X112932881Y-71364065D01*
X112883920Y-71334934D01*
X112848261Y-71314050D01*
X112828356Y-71302876D01*
X112825261Y-71301425D01*
X112815622Y-71309654D01*
X112798341Y-71335233D01*
X112775057Y-71374927D01*
X112747406Y-71425503D01*
X112717025Y-71483726D01*
X112685550Y-71546363D01*
X112654618Y-71610179D01*
X112625867Y-71671940D01*
X112600932Y-71728412D01*
X112581451Y-71776362D01*
X112573022Y-71799814D01*
X112535207Y-71933579D01*
X112510204Y-72071473D01*
X112497200Y-72219178D01*
X112494872Y-72345967D01*
X112495967Y-72413922D01*
X112498065Y-72479523D01*
X112500906Y-72536953D01*
X112504234Y-72580397D01*
X112505918Y-72594502D01*
X112534753Y-72733516D01*
X112579872Y-72875043D01*
X112638590Y-73012525D01*
X112708220Y-73139406D01*
X112760899Y-73216911D01*
X112869101Y-73344319D01*
X112995669Y-73462622D01*
X113137474Y-73569628D01*
X113291389Y-73663148D01*
X113454287Y-73740990D01*
X113571584Y-73784844D01*
X113755212Y-73835092D01*
X113949759Y-73868591D01*
X114151015Y-73885351D01*
X114354772Y-73885384D01*
X114556819Y-73868699D01*
X114752948Y-73835307D01*
X114938949Y-73785220D01*
X114950537Y-73781403D01*
X115112590Y-73718519D01*
X115260508Y-73641772D01*
X115398475Y-73548558D01*
X115530679Y-73436273D01*
X115575941Y-73392408D01*
X115699883Y-73256266D01*
X115802425Y-73116309D01*
X115884684Y-72970389D01*
X115947776Y-72816358D01*
X115992817Y-72652068D01*
X116010307Y-72556511D01*
X116025874Y-72397777D01*
X116023269Y-72239371D01*
X116023269Y-72239371D01*
G37*
X116023269Y-72239371D02*
X116002095Y-72079230D01*
X115961955Y-71915290D01*
X115902451Y-71745487D01*
X115823186Y-71567757D01*
X115817641Y-71556490D01*
X115789615Y-71498795D01*
X115765538Y-71447248D01*
X115747091Y-71405609D01*
X115735954Y-71377638D01*
X115733407Y-71368067D01*
X115728399Y-71348850D01*
X115724193Y-71344239D01*
X115713760Y-71349342D01*
X115687472Y-71365382D01*
X115648083Y-71390512D01*
X115598349Y-71422886D01*
X115541025Y-71460657D01*
X115478864Y-71501978D01*
X115414622Y-71545002D01*
X115351055Y-71587883D01*
X115290915Y-71628774D01*
X115236960Y-71665829D01*
X115191943Y-71697200D01*
X115158619Y-71721041D01*
X115139743Y-71735506D01*
X115137553Y-71737491D01*
X115142202Y-71747609D01*
X115159378Y-71769950D01*
X115185900Y-71800520D01*
X115200376Y-71816264D01*
X115275658Y-71912753D01*
X115331099Y-72019464D01*
X115366199Y-72134968D01*
X115380460Y-72257838D01*
X115379289Y-72327239D01*
X115362128Y-72448377D01*
X115326246Y-72557595D01*
X115271381Y-72655218D01*
X115197270Y-72741572D01*
X115103652Y-72816985D01*
X114990264Y-72881782D01*
X114903673Y-72919199D01*
X114767974Y-72963052D01*
X114620490Y-72995372D01*
X114465026Y-73016243D01*
X114305384Y-73025749D01*
X114145367Y-73023973D01*
X113988779Y-73010997D01*
X113839422Y-72986906D01*
X113701100Y-72951782D01*
X113577616Y-72905708D01*
X113543362Y-72889427D01*
X113429276Y-72821180D01*
X113332783Y-72740721D01*
X113254670Y-72649230D01*
X113195723Y-72547889D01*
X113156728Y-72437880D01*
X113138472Y-72320385D01*
X113137129Y-72278917D01*
X113148050Y-72157359D01*
X113180866Y-72036922D01*
X113234901Y-71919134D01*
X113309475Y-71805523D01*
X113387801Y-71714115D01*
X113432332Y-71667585D01*
X113135069Y-71486317D01*
X113060907Y-71441220D01*
X112992694Y-71399981D01*
X112932881Y-71364065D01*
X112883920Y-71334934D01*
X112848261Y-71314050D01*
X112828356Y-71302876D01*
X112825261Y-71301425D01*
X112815622Y-71309654D01*
X112798341Y-71335233D01*
X112775057Y-71374927D01*
X112747406Y-71425503D01*
X112717025Y-71483726D01*
X112685550Y-71546363D01*
X112654618Y-71610179D01*
X112625867Y-71671940D01*
X112600932Y-71728412D01*
X112581451Y-71776362D01*
X112573022Y-71799814D01*
X112535207Y-71933579D01*
X112510204Y-72071473D01*
X112497200Y-72219178D01*
X112494872Y-72345967D01*
X112495967Y-72413922D01*
X112498065Y-72479523D01*
X112500906Y-72536953D01*
X112504234Y-72580397D01*
X112505918Y-72594502D01*
X112534753Y-72733516D01*
X112579872Y-72875043D01*
X112638590Y-73012525D01*
X112708220Y-73139406D01*
X112760899Y-73216911D01*
X112869101Y-73344319D01*
X112995669Y-73462622D01*
X113137474Y-73569628D01*
X113291389Y-73663148D01*
X113454287Y-73740990D01*
X113571584Y-73784844D01*
X113755212Y-73835092D01*
X113949759Y-73868591D01*
X114151015Y-73885351D01*
X114354772Y-73885384D01*
X114556819Y-73868699D01*
X114752948Y-73835307D01*
X114938949Y-73785220D01*
X114950537Y-73781403D01*
X115112590Y-73718519D01*
X115260508Y-73641772D01*
X115398475Y-73548558D01*
X115530679Y-73436273D01*
X115575941Y-73392408D01*
X115699883Y-73256266D01*
X115802425Y-73116309D01*
X115884684Y-72970389D01*
X115947776Y-72816358D01*
X115992817Y-72652068D01*
X116010307Y-72556511D01*
X116025874Y-72397777D01*
X116023269Y-72239371D01*
G36*
X115105788Y-69894226D02*
G01*
X115085773Y-69742308D01*
X115052138Y-69607044D01*
X115004615Y-69487561D01*
X114942935Y-69382985D01*
X114879375Y-69305376D01*
X114805241Y-69236535D01*
X114725469Y-69182794D01*
X114633249Y-69139890D01*
X114590179Y-69124416D01*
X114551198Y-69111556D01*
X114515051Y-69100354D01*
X114479906Y-69090680D01*
X114443930Y-69082404D01*
X114405290Y-69075397D01*
X114362155Y-69069528D01*
X114312691Y-69064669D01*
X114255067Y-69060690D01*
X114187449Y-69057460D01*
X114108006Y-69054851D01*
X114014904Y-69052733D01*
X113906313Y-69050976D01*
X113780398Y-69049451D01*
X113635328Y-69048028D01*
X113492562Y-69046775D01*
X113336372Y-69045449D01*
X113201101Y-69044244D01*
X113085094Y-69043034D01*
X112986695Y-69041694D01*
X112904247Y-69040100D01*
X112836094Y-69038125D01*
X112780580Y-69035644D01*
X112736048Y-69032531D01*
X112700842Y-69028662D01*
X112673306Y-69023911D01*
X112651784Y-69018152D01*
X112634618Y-69011261D01*
X112620154Y-69003111D01*
X112606734Y-68993577D01*
X112592702Y-68982534D01*
X112587269Y-68978234D01*
X112564430Y-68962414D01*
X112548877Y-68955378D01*
X112548418Y-68955356D01*
X112546219Y-68966233D01*
X112544193Y-68997218D01*
X112542398Y-69045843D01*
X112540889Y-69109637D01*
X112539724Y-69186131D01*
X112538960Y-69272856D01*
X112538654Y-69367343D01*
X112538651Y-69378250D01*
X112538651Y-69801143D01*
X112634718Y-69804405D01*
X112730784Y-69807667D01*
X112679797Y-69869756D01*
X112612283Y-69967086D01*
X112557591Y-70076987D01*
X112527362Y-70163451D01*
X112512674Y-70232522D01*
X112502681Y-70315875D01*
X112497694Y-70405641D01*
X112498027Y-70493955D01*
X112503989Y-70572949D01*
X112509702Y-70609178D01*
X112547564Y-70749197D01*
X112602408Y-70875622D01*
X112673416Y-70987540D01*
X112759772Y-71084038D01*
X112860661Y-71164200D01*
X112975264Y-71227113D01*
X113101356Y-71271488D01*
X113157939Y-71283822D01*
X113220138Y-71291432D01*
X113294977Y-71295061D01*
X113328873Y-71295555D01*
X113332058Y-71295490D01*
X113332058Y-70535552D01*
X113257007Y-70526259D01*
X113193180Y-70498072D01*
X113137542Y-70449603D01*
X113133129Y-70444546D01*
X113098303Y-70396252D01*
X113075720Y-70344543D01*
X113063800Y-70283811D01*
X113060957Y-70208448D01*
X113061362Y-70190341D01*
X113064015Y-70136522D01*
X113069431Y-70096492D01*
X113079595Y-70061476D01*
X113096490Y-70022697D01*
X113101668Y-70012055D01*
X113137496Y-69951404D01*
X113180128Y-69904585D01*
X113195367Y-69891848D01*
X113251878Y-69847178D01*
X113447754Y-69847178D01*
X113526401Y-69847714D01*
X113584352Y-69849404D01*
X113623465Y-69852372D01*
X113645599Y-69856743D01*
X113652066Y-69860828D01*
X113655229Y-69876753D01*
X113657852Y-69910536D01*
X113659685Y-69957460D01*
X113660483Y-70012807D01*
X113660498Y-70021694D01*
X113655244Y-70142470D01*
X113639077Y-70245140D01*
X113611379Y-70331694D01*
X113571532Y-70404119D01*
X113524582Y-70459049D01*
X113466695Y-70503596D01*
X113403647Y-70528320D01*
X113332058Y-70535552D01*
X113332058Y-71295490D01*
X113422628Y-71293622D01*
X113501528Y-71285278D01*
X113572750Y-71269032D01*
X113643476Y-71243395D01*
X113695847Y-71219399D01*
X113791144Y-71160780D01*
X113879170Y-71082683D01*
X113958323Y-70987485D01*
X114027000Y-70877562D01*
X114083599Y-70755290D01*
X114126519Y-70623045D01*
X114141458Y-70558378D01*
X114163563Y-70422196D01*
X114178146Y-70273751D01*
X114184527Y-70122295D01*
X114182895Y-69995736D01*
X114176116Y-69833850D01*
X114235095Y-69841270D01*
X114334248Y-69860562D01*
X114414968Y-69891696D01*
X114477874Y-69935531D01*
X114523584Y-69992929D01*
X114552718Y-70064752D01*
X114565893Y-70151859D01*
X114563729Y-70255114D01*
X114559728Y-70293089D01*
X114534560Y-70434280D01*
X114493526Y-70571093D01*
X114455525Y-70665622D01*
X114436150Y-70710782D01*
X114420580Y-70749215D01*
X114410935Y-70775566D01*
X114408888Y-70783254D01*
X114417966Y-70792998D01*
X114446935Y-70809717D01*
X114496123Y-70833568D01*
X114565856Y-70864707D01*
X114656461Y-70903293D01*
X114672251Y-70909890D01*
X114744568Y-70939947D01*
X114809915Y-70966926D01*
X114865434Y-70989664D01*
X114908268Y-71006994D01*
X114935559Y-71017752D01*
X114944398Y-71020859D01*
X114949153Y-71010860D01*
X114954430Y-70984583D01*
X114958109Y-70956311D01*
X114962866Y-70926154D01*
X114972312Y-70878367D01*
X114985520Y-70817188D01*
X115001564Y-70746854D01*
X115019520Y-70671606D01*
X115026543Y-70643045D01*
X115052131Y-70537984D01*
X115072193Y-70450320D01*
X115087371Y-70375732D01*
X115098305Y-70309897D01*
X115105636Y-70248493D01*
X115110005Y-70187198D01*
X115112053Y-70121690D01*
X115112451Y-70063672D01*
X115105788Y-69894226D01*
X115105788Y-69894226D01*
G37*
X115105788Y-69894226D02*
X115085773Y-69742308D01*
X115052138Y-69607044D01*
X115004615Y-69487561D01*
X114942935Y-69382985D01*
X114879375Y-69305376D01*
X114805241Y-69236535D01*
X114725469Y-69182794D01*
X114633249Y-69139890D01*
X114590179Y-69124416D01*
X114551198Y-69111556D01*
X114515051Y-69100354D01*
X114479906Y-69090680D01*
X114443930Y-69082404D01*
X114405290Y-69075397D01*
X114362155Y-69069528D01*
X114312691Y-69064669D01*
X114255067Y-69060690D01*
X114187449Y-69057460D01*
X114108006Y-69054851D01*
X114014904Y-69052733D01*
X113906313Y-69050976D01*
X113780398Y-69049451D01*
X113635328Y-69048028D01*
X113492562Y-69046775D01*
X113336372Y-69045449D01*
X113201101Y-69044244D01*
X113085094Y-69043034D01*
X112986695Y-69041694D01*
X112904247Y-69040100D01*
X112836094Y-69038125D01*
X112780580Y-69035644D01*
X112736048Y-69032531D01*
X112700842Y-69028662D01*
X112673306Y-69023911D01*
X112651784Y-69018152D01*
X112634618Y-69011261D01*
X112620154Y-69003111D01*
X112606734Y-68993577D01*
X112592702Y-68982534D01*
X112587269Y-68978234D01*
X112564430Y-68962414D01*
X112548877Y-68955378D01*
X112548418Y-68955356D01*
X112546219Y-68966233D01*
X112544193Y-68997218D01*
X112542398Y-69045843D01*
X112540889Y-69109637D01*
X112539724Y-69186131D01*
X112538960Y-69272856D01*
X112538654Y-69367343D01*
X112538651Y-69378250D01*
X112538651Y-69801143D01*
X112634718Y-69804405D01*
X112730784Y-69807667D01*
X112679797Y-69869756D01*
X112612283Y-69967086D01*
X112557591Y-70076987D01*
X112527362Y-70163451D01*
X112512674Y-70232522D01*
X112502681Y-70315875D01*
X112497694Y-70405641D01*
X112498027Y-70493955D01*
X112503989Y-70572949D01*
X112509702Y-70609178D01*
X112547564Y-70749197D01*
X112602408Y-70875622D01*
X112673416Y-70987540D01*
X112759772Y-71084038D01*
X112860661Y-71164200D01*
X112975264Y-71227113D01*
X113101356Y-71271488D01*
X113157939Y-71283822D01*
X113220138Y-71291432D01*
X113294977Y-71295061D01*
X113328873Y-71295555D01*
X113332058Y-71295490D01*
X113332058Y-70535552D01*
X113257007Y-70526259D01*
X113193180Y-70498072D01*
X113137542Y-70449603D01*
X113133129Y-70444546D01*
X113098303Y-70396252D01*
X113075720Y-70344543D01*
X113063800Y-70283811D01*
X113060957Y-70208448D01*
X113061362Y-70190341D01*
X113064015Y-70136522D01*
X113069431Y-70096492D01*
X113079595Y-70061476D01*
X113096490Y-70022697D01*
X113101668Y-70012055D01*
X113137496Y-69951404D01*
X113180128Y-69904585D01*
X113195367Y-69891848D01*
X113251878Y-69847178D01*
X113447754Y-69847178D01*
X113526401Y-69847714D01*
X113584352Y-69849404D01*
X113623465Y-69852372D01*
X113645599Y-69856743D01*
X113652066Y-69860828D01*
X113655229Y-69876753D01*
X113657852Y-69910536D01*
X113659685Y-69957460D01*
X113660483Y-70012807D01*
X113660498Y-70021694D01*
X113655244Y-70142470D01*
X113639077Y-70245140D01*
X113611379Y-70331694D01*
X113571532Y-70404119D01*
X113524582Y-70459049D01*
X113466695Y-70503596D01*
X113403647Y-70528320D01*
X113332058Y-70535552D01*
X113332058Y-71295490D01*
X113422628Y-71293622D01*
X113501528Y-71285278D01*
X113572750Y-71269032D01*
X113643476Y-71243395D01*
X113695847Y-71219399D01*
X113791144Y-71160780D01*
X113879170Y-71082683D01*
X113958323Y-70987485D01*
X114027000Y-70877562D01*
X114083599Y-70755290D01*
X114126519Y-70623045D01*
X114141458Y-70558378D01*
X114163563Y-70422196D01*
X114178146Y-70273751D01*
X114184527Y-70122295D01*
X114182895Y-69995736D01*
X114176116Y-69833850D01*
X114235095Y-69841270D01*
X114334248Y-69860562D01*
X114414968Y-69891696D01*
X114477874Y-69935531D01*
X114523584Y-69992929D01*
X114552718Y-70064752D01*
X114565893Y-70151859D01*
X114563729Y-70255114D01*
X114559728Y-70293089D01*
X114534560Y-70434280D01*
X114493526Y-70571093D01*
X114455525Y-70665622D01*
X114436150Y-70710782D01*
X114420580Y-70749215D01*
X114410935Y-70775566D01*
X114408888Y-70783254D01*
X114417966Y-70792998D01*
X114446935Y-70809717D01*
X114496123Y-70833568D01*
X114565856Y-70864707D01*
X114656461Y-70903293D01*
X114672251Y-70909890D01*
X114744568Y-70939947D01*
X114809915Y-70966926D01*
X114865434Y-70989664D01*
X114908268Y-71006994D01*
X114935559Y-71017752D01*
X114944398Y-71020859D01*
X114949153Y-71010860D01*
X114954430Y-70984583D01*
X114958109Y-70956311D01*
X114962866Y-70926154D01*
X114972312Y-70878367D01*
X114985520Y-70817188D01*
X115001564Y-70746854D01*
X115019520Y-70671606D01*
X115026543Y-70643045D01*
X115052131Y-70537984D01*
X115072193Y-70450320D01*
X115087371Y-70375732D01*
X115098305Y-70309897D01*
X115105636Y-70248493D01*
X115110005Y-70187198D01*
X115112053Y-70121690D01*
X115112451Y-70063672D01*
X115105788Y-69894226D01*
G36*
X114500095Y-66381293D02*
G01*
X114265678Y-66381274D01*
X114052737Y-66381248D01*
X113860172Y-66381175D01*
X113686881Y-66381018D01*
X113531764Y-66380736D01*
X113393720Y-66380291D01*
X113271648Y-66379644D01*
X113164446Y-66378755D01*
X113071014Y-66377587D01*
X112990250Y-66376099D01*
X112921054Y-66374254D01*
X112862325Y-66372011D01*
X112812961Y-66369331D01*
X112771862Y-66366177D01*
X112737927Y-66362508D01*
X112710054Y-66358287D01*
X112687142Y-66353473D01*
X112668091Y-66348027D01*
X112651800Y-66341912D01*
X112637167Y-66335088D01*
X112623091Y-66327515D01*
X112608472Y-66319155D01*
X112599366Y-66313961D01*
X112538651Y-66279696D01*
X112538651Y-67137845D01*
X112634607Y-67137845D01*
X112677970Y-67138576D01*
X112711135Y-67140528D01*
X112728916Y-67143337D01*
X112730562Y-67144579D01*
X112723678Y-67156001D01*
X112705835Y-67178716D01*
X112686461Y-67201415D01*
X112645726Y-67256000D01*
X112604723Y-67325479D01*
X112567217Y-67402530D01*
X112536976Y-67479835D01*
X112527328Y-67510687D01*
X112512762Y-67579184D01*
X112502801Y-67662036D01*
X112497757Y-67751429D01*
X112497944Y-67839552D01*
X112503674Y-67918593D01*
X112509482Y-67956289D01*
X112547543Y-68094386D01*
X112605267Y-68221687D01*
X112682129Y-68337508D01*
X112777601Y-68441163D01*
X112891161Y-68531967D01*
X113001959Y-68598769D01*
X113118715Y-68653636D01*
X113238064Y-68695637D01*
X113364057Y-68725633D01*
X113500746Y-68744489D01*
X113652182Y-68753068D01*
X113729629Y-68753794D01*
X113786406Y-68751700D01*
X113786406Y-67922583D01*
X113693338Y-67922376D01*
X113605648Y-67919463D01*
X113528568Y-67913800D01*
X113467331Y-67905345D01*
X113454990Y-67902762D01*
X113347707Y-67870960D01*
X113260682Y-67829302D01*
X113193698Y-67777437D01*
X113146535Y-67715019D01*
X113118975Y-67641700D01*
X113110799Y-67557131D01*
X113121789Y-67460965D01*
X113137511Y-67397489D01*
X113155701Y-67348346D01*
X113181549Y-67294217D01*
X113205251Y-67253556D01*
X113251619Y-67183000D01*
X114401810Y-67183000D01*
X114445378Y-67250408D01*
X114486300Y-67328933D01*
X114512951Y-67413119D01*
X114524875Y-67498243D01*
X114521618Y-67579584D01*
X114502725Y-67652420D01*
X114487156Y-67684374D01*
X114444159Y-67742299D01*
X114387387Y-67791256D01*
X114314765Y-67832410D01*
X114224219Y-67866926D01*
X114113674Y-67895967D01*
X114107807Y-67897248D01*
X114045552Y-67907419D01*
X113967746Y-67915061D01*
X113879620Y-67920130D01*
X113786406Y-67922583D01*
X113786406Y-68751700D01*
X113942445Y-68745943D01*
X114138281Y-68723998D01*
X114317008Y-68688014D01*
X114478495Y-68638041D01*
X114622614Y-68574132D01*
X114749234Y-68496338D01*
X114858225Y-68404711D01*
X114949457Y-68299303D01*
X114980408Y-68254138D01*
X115036555Y-68153189D01*
X115076166Y-68049899D01*
X115100326Y-67939811D01*
X115110121Y-67818470D01*
X115109075Y-67725964D01*
X115098109Y-67596310D01*
X115076294Y-67483716D01*
X115042626Y-67384925D01*
X114996104Y-67296679D01*
X114961892Y-67247814D01*
X114939978Y-67218447D01*
X114925007Y-67196757D01*
X114920607Y-67188547D01*
X114931436Y-67186932D01*
X114962089Y-67185641D01*
X115009814Y-67184662D01*
X115071861Y-67183983D01*
X115145478Y-67183590D01*
X115227913Y-67183470D01*
X115316415Y-67183612D01*
X115408233Y-67184003D01*
X115500616Y-67184629D01*
X115590812Y-67185480D01*
X115676069Y-67186540D01*
X115753637Y-67187799D01*
X115820764Y-67189244D01*
X115874699Y-67190862D01*
X115912690Y-67192639D01*
X115919673Y-67193131D01*
X115990089Y-67200708D01*
X116045238Y-67212269D01*
X116092359Y-67230008D01*
X116138693Y-67256118D01*
X116148273Y-67262385D01*
X116184962Y-67286817D01*
X116184962Y-66381489D01*
X114500095Y-66381293D01*
X114500095Y-66381293D01*
G37*
X114500095Y-66381293D02*
X114265678Y-66381274D01*
X114052737Y-66381248D01*
X113860172Y-66381175D01*
X113686881Y-66381018D01*
X113531764Y-66380736D01*
X113393720Y-66380291D01*
X113271648Y-66379644D01*
X113164446Y-66378755D01*
X113071014Y-66377587D01*
X112990250Y-66376099D01*
X112921054Y-66374254D01*
X112862325Y-66372011D01*
X112812961Y-66369331D01*
X112771862Y-66366177D01*
X112737927Y-66362508D01*
X112710054Y-66358287D01*
X112687142Y-66353473D01*
X112668091Y-66348027D01*
X112651800Y-66341912D01*
X112637167Y-66335088D01*
X112623091Y-66327515D01*
X112608472Y-66319155D01*
X112599366Y-66313961D01*
X112538651Y-66279696D01*
X112538651Y-67137845D01*
X112634607Y-67137845D01*
X112677970Y-67138576D01*
X112711135Y-67140528D01*
X112728916Y-67143337D01*
X112730562Y-67144579D01*
X112723678Y-67156001D01*
X112705835Y-67178716D01*
X112686461Y-67201415D01*
X112645726Y-67256000D01*
X112604723Y-67325479D01*
X112567217Y-67402530D01*
X112536976Y-67479835D01*
X112527328Y-67510687D01*
X112512762Y-67579184D01*
X112502801Y-67662036D01*
X112497757Y-67751429D01*
X112497944Y-67839552D01*
X112503674Y-67918593D01*
X112509482Y-67956289D01*
X112547543Y-68094386D01*
X112605267Y-68221687D01*
X112682129Y-68337508D01*
X112777601Y-68441163D01*
X112891161Y-68531967D01*
X113001959Y-68598769D01*
X113118715Y-68653636D01*
X113238064Y-68695637D01*
X113364057Y-68725633D01*
X113500746Y-68744489D01*
X113652182Y-68753068D01*
X113729629Y-68753794D01*
X113786406Y-68751700D01*
X113786406Y-67922583D01*
X113693338Y-67922376D01*
X113605648Y-67919463D01*
X113528568Y-67913800D01*
X113467331Y-67905345D01*
X113454990Y-67902762D01*
X113347707Y-67870960D01*
X113260682Y-67829302D01*
X113193698Y-67777437D01*
X113146535Y-67715019D01*
X113118975Y-67641700D01*
X113110799Y-67557131D01*
X113121789Y-67460965D01*
X113137511Y-67397489D01*
X113155701Y-67348346D01*
X113181549Y-67294217D01*
X113205251Y-67253556D01*
X113251619Y-67183000D01*
X114401810Y-67183000D01*
X114445378Y-67250408D01*
X114486300Y-67328933D01*
X114512951Y-67413119D01*
X114524875Y-67498243D01*
X114521618Y-67579584D01*
X114502725Y-67652420D01*
X114487156Y-67684374D01*
X114444159Y-67742299D01*
X114387387Y-67791256D01*
X114314765Y-67832410D01*
X114224219Y-67866926D01*
X114113674Y-67895967D01*
X114107807Y-67897248D01*
X114045552Y-67907419D01*
X113967746Y-67915061D01*
X113879620Y-67920130D01*
X113786406Y-67922583D01*
X113786406Y-68751700D01*
X113942445Y-68745943D01*
X114138281Y-68723998D01*
X114317008Y-68688014D01*
X114478495Y-68638041D01*
X114622614Y-68574132D01*
X114749234Y-68496338D01*
X114858225Y-68404711D01*
X114949457Y-68299303D01*
X114980408Y-68254138D01*
X115036555Y-68153189D01*
X115076166Y-68049899D01*
X115100326Y-67939811D01*
X115110121Y-67818470D01*
X115109075Y-67725964D01*
X115098109Y-67596310D01*
X115076294Y-67483716D01*
X115042626Y-67384925D01*
X114996104Y-67296679D01*
X114961892Y-67247814D01*
X114939978Y-67218447D01*
X114925007Y-67196757D01*
X114920607Y-67188547D01*
X114931436Y-67186932D01*
X114962089Y-67185641D01*
X115009814Y-67184662D01*
X115071861Y-67183983D01*
X115145478Y-67183590D01*
X115227913Y-67183470D01*
X115316415Y-67183612D01*
X115408233Y-67184003D01*
X115500616Y-67184629D01*
X115590812Y-67185480D01*
X115676069Y-67186540D01*
X115753637Y-67187799D01*
X115820764Y-67189244D01*
X115874699Y-67190862D01*
X115912690Y-67192639D01*
X115919673Y-67193131D01*
X115990089Y-67200708D01*
X116045238Y-67212269D01*
X116092359Y-67230008D01*
X116138693Y-67256118D01*
X116148273Y-67262385D01*
X116184962Y-67286817D01*
X116184962Y-66381489D01*
X114500095Y-66381293D01*
G36*
X116945769Y-74840843D02*
G01*
X116921531Y-74744568D01*
X116878699Y-74657984D01*
X116818921Y-74583173D01*
X116743846Y-74522218D01*
X116655120Y-74477199D01*
X116558810Y-74450936D01*
X116461545Y-74445086D01*
X116367686Y-74459940D01*
X116279829Y-74493640D01*
X116200570Y-74544328D01*
X116132504Y-74610145D01*
X116078228Y-74689234D01*
X116040338Y-74779734D01*
X116027914Y-74831000D01*
X116020393Y-74875498D01*
X116017421Y-74909799D01*
X116019246Y-74942760D01*
X116026115Y-74983234D01*
X116033090Y-75016331D01*
X116064599Y-75109747D01*
X116115723Y-75193419D01*
X116184911Y-75265465D01*
X116270612Y-75324000D01*
X116297851Y-75337948D01*
X116334218Y-75354386D01*
X116364758Y-75364694D01*
X116396890Y-75370260D01*
X116438033Y-75372469D01*
X116484118Y-75372748D01*
X116568475Y-75368661D01*
X116637754Y-75355246D01*
X116698379Y-75330056D01*
X116756773Y-75290646D01*
X116801038Y-75252098D01*
X116866856Y-75180206D01*
X116912287Y-75105113D01*
X116939490Y-75022362D01*
X116949764Y-74944728D01*
X116945769Y-74840843D01*
X116945769Y-74840843D01*
G37*
X116945769Y-74840843D02*
X116921531Y-74744568D01*
X116878699Y-74657984D01*
X116818921Y-74583173D01*
X116743846Y-74522218D01*
X116655120Y-74477199D01*
X116558810Y-74450936D01*
X116461545Y-74445086D01*
X116367686Y-74459940D01*
X116279829Y-74493640D01*
X116200570Y-74544328D01*
X116132504Y-74610145D01*
X116078228Y-74689234D01*
X116040338Y-74779734D01*
X116027914Y-74831000D01*
X116020393Y-74875498D01*
X116017421Y-74909799D01*
X116019246Y-74942760D01*
X116026115Y-74983234D01*
X116033090Y-75016331D01*
X116064599Y-75109747D01*
X116115723Y-75193419D01*
X116184911Y-75265465D01*
X116270612Y-75324000D01*
X116297851Y-75337948D01*
X116334218Y-75354386D01*
X116364758Y-75364694D01*
X116396890Y-75370260D01*
X116438033Y-75372469D01*
X116484118Y-75372748D01*
X116568475Y-75368661D01*
X116637754Y-75355246D01*
X116698379Y-75330056D01*
X116756773Y-75290646D01*
X116801038Y-75252098D01*
X116866856Y-75180206D01*
X116912287Y-75105113D01*
X116939490Y-75022362D01*
X116949764Y-74944728D01*
X116945769Y-74840843D01*
D12*
G36*
X130051020Y-74501881D02*
G01*
X129754021Y-74525906D01*
X129544213Y-74577863D01*
X129469589Y-74638747D01*
X129439517Y-74830775D01*
X129535919Y-74951223D01*
X129772666Y-75009969D01*
X130004631Y-75019747D01*
X130500128Y-75054826D01*
X130849603Y-75162095D01*
X131061609Y-75344601D01*
X131097204Y-75408945D01*
X131140139Y-75586386D01*
X131173221Y-75881494D01*
X131191482Y-76242672D01*
X131193540Y-76409313D01*
X131187992Y-76800938D01*
X131166460Y-77065734D01*
X131121613Y-77245982D01*
X131046118Y-77383966D01*
X131018062Y-77421329D01*
X130788801Y-77600326D01*
X130525590Y-77637878D01*
X130278590Y-77530694D01*
X130218686Y-77473768D01*
X130104086Y-77250874D01*
X130033032Y-76901438D01*
X130024896Y-76817601D01*
X129968463Y-76453232D01*
X129870934Y-76252432D01*
X129731385Y-76214272D01*
X129548893Y-76337823D01*
X129548588Y-76338128D01*
X129450591Y-76535227D01*
X129432825Y-76857857D01*
X129494680Y-77317959D01*
X129497821Y-77334329D01*
X129644460Y-77714078D01*
X129896039Y-77992524D01*
X130218854Y-78165584D01*
X130579205Y-78229179D01*
X130943389Y-78179226D01*
X131277703Y-78011645D01*
X131548446Y-77722354D01*
X131621971Y-77591552D01*
X131701353Y-77408220D01*
X131751716Y-77224791D01*
X131777665Y-76999743D01*
X131783806Y-76691552D01*
X131774744Y-76258696D01*
X131773688Y-76223589D01*
X131751274Y-75730594D01*
X131710717Y-75372645D01*
X131639824Y-75115557D01*
X131526403Y-74925148D01*
X131358263Y-74767235D01*
X131219369Y-74669455D01*
X131019386Y-74589575D01*
X130728281Y-74534498D01*
X130390633Y-74505006D01*
X130051020Y-74501881D01*
X130051020Y-74501881D01*
G37*
X130051020Y-74501881D02*
X129754021Y-74525906D01*
X129544213Y-74577863D01*
X129469589Y-74638747D01*
X129439517Y-74830775D01*
X129535919Y-74951223D01*
X129772666Y-75009969D01*
X130004631Y-75019747D01*
X130500128Y-75054826D01*
X130849603Y-75162095D01*
X131061609Y-75344601D01*
X131097204Y-75408945D01*
X131140139Y-75586386D01*
X131173221Y-75881494D01*
X131191482Y-76242672D01*
X131193540Y-76409313D01*
X131187992Y-76800938D01*
X131166460Y-77065734D01*
X131121613Y-77245982D01*
X131046118Y-77383966D01*
X131018062Y-77421329D01*
X130788801Y-77600326D01*
X130525590Y-77637878D01*
X130278590Y-77530694D01*
X130218686Y-77473768D01*
X130104086Y-77250874D01*
X130033032Y-76901438D01*
X130024896Y-76817601D01*
X129968463Y-76453232D01*
X129870934Y-76252432D01*
X129731385Y-76214272D01*
X129548893Y-76337823D01*
X129548588Y-76338128D01*
X129450591Y-76535227D01*
X129432825Y-76857857D01*
X129494680Y-77317959D01*
X129497821Y-77334329D01*
X129644460Y-77714078D01*
X129896039Y-77992524D01*
X130218854Y-78165584D01*
X130579205Y-78229179D01*
X130943389Y-78179226D01*
X131277703Y-78011645D01*
X131548446Y-77722354D01*
X131621971Y-77591552D01*
X131701353Y-77408220D01*
X131751716Y-77224791D01*
X131777665Y-76999743D01*
X131783806Y-76691552D01*
X131774744Y-76258696D01*
X131773688Y-76223589D01*
X131751274Y-75730594D01*
X131710717Y-75372645D01*
X131639824Y-75115557D01*
X131526403Y-74925148D01*
X131358263Y-74767235D01*
X131219369Y-74669455D01*
X131019386Y-74589575D01*
X130728281Y-74534498D01*
X130390633Y-74505006D01*
X130051020Y-74501881D01*
G36*
X129685141Y-73158012D02*
G01*
X129162383Y-73177942D01*
X128799471Y-73238741D01*
X128597694Y-73339786D01*
X128558337Y-73480456D01*
X128670474Y-73648147D01*
X128816052Y-73701398D01*
X129122658Y-73735394D01*
X129583003Y-73749404D01*
X129682490Y-73749747D01*
X130079805Y-73758316D01*
X130432133Y-73781450D01*
X130693663Y-73815290D01*
X130799416Y-73843839D01*
X130968886Y-73987405D01*
X131115975Y-74221752D01*
X131135256Y-74267172D01*
X131245754Y-74488242D01*
X131371568Y-74583073D01*
X131476855Y-74596413D01*
X131653297Y-74532441D01*
X131736873Y-74364511D01*
X131730059Y-74128605D01*
X131635335Y-73860706D01*
X131455179Y-73596796D01*
X131404285Y-73542802D01*
X131227555Y-73391520D01*
X131027743Y-73284864D01*
X130772354Y-73215563D01*
X130428891Y-73176343D01*
X129964858Y-73159931D01*
X129685141Y-73158012D01*
X129685141Y-73158012D01*
G37*
X129685141Y-73158012D02*
X129162383Y-73177942D01*
X128799471Y-73238741D01*
X128597694Y-73339786D01*
X128558337Y-73480456D01*
X128670474Y-73648147D01*
X128816052Y-73701398D01*
X129122658Y-73735394D01*
X129583003Y-73749404D01*
X129682490Y-73749747D01*
X130079805Y-73758316D01*
X130432133Y-73781450D01*
X130693663Y-73815290D01*
X130799416Y-73843839D01*
X130968886Y-73987405D01*
X131115975Y-74221752D01*
X131135256Y-74267172D01*
X131245754Y-74488242D01*
X131371568Y-74583073D01*
X131476855Y-74596413D01*
X131653297Y-74532441D01*
X131736873Y-74364511D01*
X131730059Y-74128605D01*
X131635335Y-73860706D01*
X131455179Y-73596796D01*
X131404285Y-73542802D01*
X131227555Y-73391520D01*
X131027743Y-73284864D01*
X130772354Y-73215563D01*
X130428891Y-73176343D01*
X129964858Y-73159931D01*
X129685141Y-73158012D01*
G36*
X129776144Y-75354410D02*
G01*
X129392590Y-75401891D01*
X129043059Y-75566633D01*
X128773729Y-75840919D01*
X128700372Y-75982177D01*
X128650435Y-76170513D01*
X128618662Y-76441365D01*
X128599798Y-76830169D01*
X128594147Y-77051747D01*
X128589849Y-77448141D01*
X128593811Y-77786433D01*
X128605090Y-78028210D01*
X128620587Y-78131247D01*
X128737655Y-78220109D01*
X128915780Y-78228196D01*
X129069944Y-78160386D01*
X129110149Y-78103155D01*
X129132162Y-77964353D01*
X129149463Y-77700281D01*
X129159727Y-77354987D01*
X129161540Y-77129489D01*
X129177111Y-76647945D01*
X129231059Y-76311409D01*
X129334241Y-76097808D01*
X129497512Y-75985067D01*
X129731729Y-75951113D01*
X129741085Y-75951080D01*
X130005048Y-76017578D01*
X130191896Y-76222222D01*
X130307220Y-76572738D01*
X130336636Y-76774156D01*
X130372477Y-77049719D01*
X130418484Y-77196387D01*
X130496285Y-77254207D01*
X130600874Y-77263413D01*
X130715272Y-77252449D01*
X130781585Y-77194116D01*
X130816374Y-77050256D01*
X130836199Y-76782711D01*
X130839723Y-76713080D01*
X130835696Y-76296800D01*
X130771295Y-75997100D01*
X130728754Y-75902801D01*
X130484446Y-75606138D01*
X130153503Y-75422917D01*
X129776144Y-75354410D01*
X129776144Y-75354410D01*
G37*
X129776144Y-75354410D02*
X129392590Y-75401891D01*
X129043059Y-75566633D01*
X128773729Y-75840919D01*
X128700372Y-75982177D01*
X128650435Y-76170513D01*
X128618662Y-76441365D01*
X128599798Y-76830169D01*
X128594147Y-77051747D01*
X128589849Y-77448141D01*
X128593811Y-77786433D01*
X128605090Y-78028210D01*
X128620587Y-78131247D01*
X128737655Y-78220109D01*
X128915780Y-78228196D01*
X129069944Y-78160386D01*
X129110149Y-78103155D01*
X129132162Y-77964353D01*
X129149463Y-77700281D01*
X129159727Y-77354987D01*
X129161540Y-77129489D01*
X129177111Y-76647945D01*
X129231059Y-76311409D01*
X129334241Y-76097808D01*
X129497512Y-75985067D01*
X129731729Y-75951113D01*
X129741085Y-75951080D01*
X130005048Y-76017578D01*
X130191896Y-76222222D01*
X130307220Y-76572738D01*
X130336636Y-76774156D01*
X130372477Y-77049719D01*
X130418484Y-77196387D01*
X130496285Y-77254207D01*
X130600874Y-77263413D01*
X130715272Y-77252449D01*
X130781585Y-77194116D01*
X130816374Y-77050256D01*
X130836199Y-76782711D01*
X130839723Y-76713080D01*
X130835696Y-76296800D01*
X130771295Y-75997100D01*
X130728754Y-75902801D01*
X130484446Y-75606138D01*
X130153503Y-75422917D01*
X129776144Y-75354410D01*
G36*
X130921122Y-72392702D02*
G01*
X130327464Y-72394842D01*
X130142595Y-72395080D01*
X129502323Y-72397048D01*
X129012087Y-72403715D01*
X128652626Y-72416224D01*
X128404679Y-72435719D01*
X128248986Y-72463345D01*
X128166288Y-72500245D01*
X128152870Y-72513249D01*
X128081398Y-72680484D01*
X128051066Y-72818413D01*
X128504792Y-72818413D01*
X130098169Y-72818413D01*
X130618631Y-72822469D01*
X131068208Y-72833830D01*
X131421875Y-72851285D01*
X131654603Y-72873627D01*
X131740614Y-72897805D01*
X131771448Y-73009253D01*
X131817921Y-73251528D01*
X131873445Y-73587587D01*
X131925055Y-73934972D01*
X131987004Y-74563440D01*
X132015295Y-75291029D01*
X132011043Y-76060943D01*
X131975361Y-76816388D01*
X131909364Y-77500566D01*
X131847303Y-77898413D01*
X131742681Y-78448747D01*
X130121397Y-78471714D01*
X128500114Y-78494681D01*
X128409342Y-77921381D01*
X128356612Y-77585467D01*
X128309538Y-77280656D01*
X128281449Y-77094080D01*
X128263801Y-76853911D01*
X128257379Y-76482555D01*
X128260923Y-76017697D01*
X128273176Y-75497023D01*
X128292880Y-74958218D01*
X128318779Y-74438968D01*
X128349614Y-73976958D01*
X128384128Y-73609874D01*
X128402234Y-73474580D01*
X128504792Y-72818413D01*
X128051066Y-72818413D01*
X128013374Y-72989805D01*
X127951503Y-73413967D01*
X127898489Y-73925724D01*
X127857036Y-74497831D01*
X127829848Y-75103041D01*
X127819630Y-75714111D01*
X127820057Y-75866413D01*
X127825280Y-76351411D01*
X127833339Y-76790191D01*
X127843357Y-77148926D01*
X127854460Y-77393788D01*
X127861724Y-77475080D01*
X127945304Y-77981652D01*
X128027832Y-78389441D01*
X128103908Y-78674618D01*
X128163866Y-78808580D01*
X128241691Y-78845615D01*
X128416750Y-78873774D01*
X128704465Y-78893882D01*
X129120256Y-78906763D01*
X129679544Y-78913243D01*
X130142595Y-78914413D01*
X130758941Y-78913462D01*
X131227376Y-78909503D01*
X131569316Y-78900880D01*
X131806178Y-78885936D01*
X131959380Y-78863014D01*
X132050337Y-78830458D01*
X132100467Y-78786612D01*
X132115943Y-78761768D01*
X132209361Y-78495880D01*
X132289365Y-78090319D01*
X132354710Y-77574307D01*
X132404151Y-76977065D01*
X132436441Y-76327816D01*
X132450336Y-75655782D01*
X132444590Y-74990184D01*
X132417958Y-74360246D01*
X132369194Y-73795189D01*
X132337757Y-73556887D01*
X132286117Y-73191422D01*
X132241188Y-72911318D01*
X132181693Y-72705314D01*
X132086358Y-72562151D01*
X131933908Y-72470568D01*
X131703069Y-72419305D01*
X131372565Y-72397103D01*
X130921122Y-72392702D01*
X130921122Y-72392702D01*
G37*
X130921122Y-72392702D02*
X130327464Y-72394842D01*
X130142595Y-72395080D01*
X129502323Y-72397048D01*
X129012087Y-72403715D01*
X128652626Y-72416224D01*
X128404679Y-72435719D01*
X128248986Y-72463345D01*
X128166288Y-72500245D01*
X128152870Y-72513249D01*
X128081398Y-72680484D01*
X128051066Y-72818413D01*
X128504792Y-72818413D01*
X130098169Y-72818413D01*
X130618631Y-72822469D01*
X131068208Y-72833830D01*
X131421875Y-72851285D01*
X131654603Y-72873627D01*
X131740614Y-72897805D01*
X131771448Y-73009253D01*
X131817921Y-73251528D01*
X131873445Y-73587587D01*
X131925055Y-73934972D01*
X131987004Y-74563440D01*
X132015295Y-75291029D01*
X132011043Y-76060943D01*
X131975361Y-76816388D01*
X131909364Y-77500566D01*
X131847303Y-77898413D01*
X131742681Y-78448747D01*
X130121397Y-78471714D01*
X128500114Y-78494681D01*
X128409342Y-77921381D01*
X128356612Y-77585467D01*
X128309538Y-77280656D01*
X128281449Y-77094080D01*
X128263801Y-76853911D01*
X128257379Y-76482555D01*
X128260923Y-76017697D01*
X128273176Y-75497023D01*
X128292880Y-74958218D01*
X128318779Y-74438968D01*
X128349614Y-73976958D01*
X128384128Y-73609874D01*
X128402234Y-73474580D01*
X128504792Y-72818413D01*
X128051066Y-72818413D01*
X128013374Y-72989805D01*
X127951503Y-73413967D01*
X127898489Y-73925724D01*
X127857036Y-74497831D01*
X127829848Y-75103041D01*
X127819630Y-75714111D01*
X127820057Y-75866413D01*
X127825280Y-76351411D01*
X127833339Y-76790191D01*
X127843357Y-77148926D01*
X127854460Y-77393788D01*
X127861724Y-77475080D01*
X127945304Y-77981652D01*
X128027832Y-78389441D01*
X128103908Y-78674618D01*
X128163866Y-78808580D01*
X128241691Y-78845615D01*
X128416750Y-78873774D01*
X128704465Y-78893882D01*
X129120256Y-78906763D01*
X129679544Y-78913243D01*
X130142595Y-78914413D01*
X130758941Y-78913462D01*
X131227376Y-78909503D01*
X131569316Y-78900880D01*
X131806178Y-78885936D01*
X131959380Y-78863014D01*
X132050337Y-78830458D01*
X132100467Y-78786612D01*
X132115943Y-78761768D01*
X132209361Y-78495880D01*
X132289365Y-78090319D01*
X132354710Y-77574307D01*
X132404151Y-76977065D01*
X132436441Y-76327816D01*
X132450336Y-75655782D01*
X132444590Y-74990184D01*
X132417958Y-74360246D01*
X132369194Y-73795189D01*
X132337757Y-73556887D01*
X132286117Y-73191422D01*
X132241188Y-72911318D01*
X132181693Y-72705314D01*
X132086358Y-72562151D01*
X131933908Y-72470568D01*
X131703069Y-72419305D01*
X131372565Y-72397103D01*
X130921122Y-72392702D01*
D13*
X119526360Y-75335440D02*
X116866360Y-75335440D01*
X119526360Y-52415440D02*
X119526360Y-75335440D01*
X116866360Y-52415440D02*
X116866360Y-75335440D01*
X119526360Y-52415440D02*
X116866360Y-52415440D01*
X119526360Y-51145440D02*
X119526360Y-49815440D01*
X119526360Y-49815440D02*
X118196360Y-49815440D01*
X124491440Y-75310200D02*
X125821440Y-75310200D01*
X124491440Y-73980200D02*
X124491440Y-75310200D01*
X124491440Y-72710200D02*
X127151440Y-72710200D01*
X127151440Y-72710200D02*
X127151440Y-49790200D01*
X124491440Y-72710200D02*
X124491440Y-49790200D01*
X124491440Y-49790200D02*
X127151440Y-49790200D01*
D10*
X119848380Y-61223685D02*
X120562666Y-61223685D01*
X120705523Y-61176066D01*
X120800761Y-61080828D01*
X120848380Y-60937971D01*
X120848380Y-60842733D01*
X120848380Y-62223685D02*
X120848380Y-61652257D01*
X120848380Y-61937971D02*
X119848380Y-61937971D01*
X119991238Y-61842733D01*
X120086476Y-61747495D01*
X120134095Y-61652257D01*
X119848380Y-62842733D02*
X119848380Y-62937971D01*
X119896000Y-63033209D01*
X119943619Y-63080828D01*
X120038857Y-63128447D01*
X120229333Y-63176066D01*
X120467428Y-63176066D01*
X120657904Y-63128447D01*
X120753142Y-63080828D01*
X120800761Y-63033209D01*
X120848380Y-62937971D01*
X120848380Y-62842733D01*
X120800761Y-62747495D01*
X120753142Y-62699876D01*
X120657904Y-62652257D01*
X120467428Y-62604638D01*
X120229333Y-62604638D01*
X120038857Y-62652257D01*
X119943619Y-62699876D01*
X119896000Y-62747495D01*
X119848380Y-62842733D01*
X120848380Y-64128447D02*
X120848380Y-63557019D01*
X120848380Y-63842733D02*
X119848380Y-63842733D01*
X119991238Y-63747495D01*
X120086476Y-63652257D01*
X120134095Y-63557019D01*
X123251980Y-61223685D02*
X123966266Y-61223685D01*
X124109123Y-61176066D01*
X124204361Y-61080828D01*
X124251980Y-60937971D01*
X124251980Y-60842733D01*
X124251980Y-62223685D02*
X124251980Y-61652257D01*
X124251980Y-61937971D02*
X123251980Y-61937971D01*
X123394838Y-61842733D01*
X123490076Y-61747495D01*
X123537695Y-61652257D01*
X123251980Y-62842733D02*
X123251980Y-62937971D01*
X123299600Y-63033209D01*
X123347219Y-63080828D01*
X123442457Y-63128447D01*
X123632933Y-63176066D01*
X123871028Y-63176066D01*
X124061504Y-63128447D01*
X124156742Y-63080828D01*
X124204361Y-63033209D01*
X124251980Y-62937971D01*
X124251980Y-62842733D01*
X124204361Y-62747495D01*
X124156742Y-62699876D01*
X124061504Y-62652257D01*
X123871028Y-62604638D01*
X123632933Y-62604638D01*
X123442457Y-62652257D01*
X123347219Y-62699876D01*
X123299600Y-62747495D01*
X123251980Y-62842733D01*
X123347219Y-63557019D02*
X123299600Y-63604638D01*
X123251980Y-63699876D01*
X123251980Y-63937971D01*
X123299600Y-64033209D01*
X123347219Y-64080828D01*
X123442457Y-64128447D01*
X123537695Y-64128447D01*
X123680552Y-64080828D01*
X124251980Y-63509400D01*
X124251980Y-64128447D01*
M02*
